<?xml version="1.0" encoding="UTF-8" standalone="no"?>
<svg
   class="h-full w-full"
   viewBox="0 0 565 565"
   version="1.1"
   xml:space="preserve"
   style="clip-rule:evenodd;fill-rule:evenodd;stroke-linejoin:round;stroke-miterlimit:2"
   id="svg290"
   sodipodi:docname="logobg.svg"
   width="565"
   height="565"
   inkscape:version="1.3.2 (091e20e, 2023-11-25, custom)"
   xmlns:inkscape="http://www.inkscape.org/namespaces/inkscape"
   xmlns:sodipodi="http://sodipodi.sourceforge.net/DTD/sodipodi-0.dtd"
   xmlns="http://www.w3.org/2000/svg"
   xmlns:svg="http://www.w3.org/2000/svg"><sodipodi:namedview
   id="namedview290"
   pagecolor="#ffffff"
   bordercolor="#000000"
   borderopacity="0.25"
   inkscape:showpageshadow="2"
   inkscape:pageopacity="0.0"
   inkscape:pagecheckerboard="0"
   inkscape:deskcolor="#d1d1d1"
   inkscape:zoom="1"
   inkscape:cx="160.5"
   inkscape:cy="324"
   inkscape:window-width="1920"
   inkscape:window-height="1130"
   inkscape:window-x="761"
   inkscape:window-y="-6"
   inkscape:window-maximized="1"
   inkscape:current-layer="g290" />
    <g
   id="g171">
    
    
    
    
    
    
    
    
    
    
    
    
    
    <g
   id="g290"
   style="opacity:0.25"
   transform="translate(0.00578639,-6.247)"><g
     id="g291"><g
       id="g30">
        <path
   d="m 256.407,309.227 c 57.43,4.52 73.28,-23.59 60.4,-62.24 -12.87,-38.65 0,-49.19 0,-49.19 0,0 -16.83,8.03 -18.81,18.57 -1.98,10.54 -17.76,17.03 -22.74,9.52 -4.98,-7.51 -5.48,2.53 -5.48,2.53 z"
   style="fill:#fc0001;fill-rule:nonzero"
   id="path1" />
        <path
   d="m 129.657,296.177 c -22.78,-24.09 -4.46,-38.15 7.92,-48.19 12.38,-10.04 -5.45,-28.11 -5.45,-28.11 0,0 23.27,4.02 21.78,17.57 -1.49,13.55 -7.43,33.13 -3.47,42.16 3.97,9.04 -20.78,16.57 -20.78,16.57 z"
   style="fill:#fc0001;fill-rule:nonzero"
   id="path2" />
        <path
   d="m 225.707,187.037 c -25.74,-24.53 6.09,-29.35 11.13,-58.4 4.97,-28.64 -11.6,-52.68 -23.33,-63.25 -0.04,-0.04 -0.07,-0.08 -0.11,-0.11 -16.32,-16.17 8.97,-27.76 -4.98,-59.03 0,0 1.47,17.13 -7.34,26.06 -8.81,8.93 -21.84,21.14 -5.69,53.16 2.27,4.5 3.75,8.83 4.63,12.95 0.49,9.05 -3.4,17.05 -19.06,25.37 -48.44,25.73 -6.71,54.23 -6.71,69.08 0,14.85 -19.02,19.37 -17.35,30.99 1.68,11.62 12.08,6.61 1.68,16.14 -23.17,21.22 -47.13,59.41 10.5,78.78 0,0 84.05,13.54 96.92,-23.9 12.86,-37.47 -14.55,-83.31 -40.29,-107.84 z"
   style="fill:#fc0001;fill-rule:nonzero"
   id="path3" />
        <path
   d="m 218.697,307.047 c 98.42,26.06 72.71,-61.8 56.55,-81.16 -16.16,-19.36 19.25,-37.65 19.1,-62.54 -0.28,-44.04 -26.91,-59.44 -40.86,-72.43 -28.21,-26.27 -1.96,-47.65 -1.96,-47.65 0,0 -32.55,10.17 -24.48,34.74 10.15,30.9 -39.93,111.39 -24.5,161.28 15.42,49.89 16.15,67.76 16.15,67.76 z"
   style="fill:#fc0001;fill-rule:nonzero"
   id="path4" />
        <path
   d="m 250.927,301.347 c -66.02,16.73 -108.93,-30.79 -83.84,-54.21 25.09,-23.43 -5.94,-14.06 15.18,-55.55 21.13,-41.5 -40.27,-31.46 1.32,-62.91 41.59,-31.46 22.45,-45.51 16.5,-65.59 -5.94,-20.08 3.3,-27.44 3.3,-27.44 0,0 -9.24,21.42 7.92,34.13 17.16,12.72 44.89,49.53 47.53,84.33 2.64,34.8 3.96,69.61 14.52,103.07 10.58,33.47 -22.43,44.17 -22.43,44.17 z"
   style="fill:#fb6d01;fill-rule:nonzero"
   id="path5" />
        <path
   d="m 235.747,67.767 c -6.6,26.77 6.6,80.31 6.6,80.31 l -3.96,87.68 c 0,0 31.69,-20.75 40.93,-54.88 9.24,-34.13 -1.98,-55.55 -24.43,-76.3 -22.44,-20.74 -19.14,-36.81 -19.14,-36.81 z"
   style="fill:#fb6d01;fill-rule:nonzero"
   id="path6" />
        <path
   d="m 172.367,58.397 c -17.16,30.12 15.13,24.28 8.58,45.51 -3.3,10.71 -11.22,14.72 -11.22,14.72 0,0 14.52,-15.39 -5.28,-27.44 -19.8,-12.04 7.92,-32.79 7.92,-32.79 z"
   style="fill:#fc0001;fill-rule:nonzero"
   id="path7" />
        <path
   d="m 293.847,200.287 c 14.52,-10.71 13.86,-33.46 13.86,-33.46 0,0 4.06,22.14 1.32,26.77 -5.94,10.04 -15.18,6.69 -15.18,6.69 z"
   style="fill:#fc0001;fill-rule:nonzero"
   id="path8" />
        <path
   d="m 156.167,203.247 c -25.92,-12.71 -15.88,-47.46 -15.88,-47.46 0,0 -0.84,20.34 9.2,28.82 10.03,8.48 18.39,10.17 16.72,15.26 -1.68,5.07 -10.04,3.38 -10.04,3.38 z"
   style="fill:#fc0001;fill-rule:nonzero"
   id="path9" />
        <path
   d="m 242.537,313.247 c 66.84,8.03 70.8,-23.09 70.31,-41.66 -0.5,-18.57 -10.4,-28.61 -9.41,-39.15 0.99,-10.54 2.97,-12.55 2.97,-12.55 0,0 -10.89,8.03 -8.91,19.07 1.98,11.04 -12.43,15.52 -20.82,7.51 -8.39,-8.01 -34.14,66.78 -34.14,66.78 z"
   style="fill:#fb6d01;fill-rule:nonzero"
   id="path10" />
        <path
   d="m 220.257,307.227 c 102.49,18.57 87.63,-24.09 83.67,-49.69 -3.96,-25.6 4.46,14.05 -29.21,10.04 -33.66,-4.02 -54.46,39.65 -54.46,39.65 z"
   style="fill:#facf67;fill-rule:nonzero"
   id="path11" />
        <path
   d="m 223.207,94.537 c 43.57,49.53 62.06,71.61 34.99,105.75 -27.07,34.13 -38.29,38.82 -22.45,58.23 15.84,19.41 9.9,55.55 -37.63,52.87 -47.53,-2.68 -69.32,-33.46 -28.39,-58.23 40.93,-24.76 13.86,-37.48 24.43,-63.58 10.57,-26.1 44.23,-30.12 37.63,-60.91 -6.6,-30.78 -8.58,-34.13 -8.58,-34.13 z"
   style="fill:#efa204;fill-rule:nonzero"
   id="path12" />
        <path
   d="m 200.097,121.977 c -28.39,24.76 0,64.92 15.84,58.9 15.84,-6.02 20.47,-20.75 0,-32.13 -20.46,-11.37 -15.84,-26.77 -15.84,-26.77 z"
   style="fill:#efa204;fill-rule:nonzero"
   id="path13" />
        <path
   d="m 204.057,305.367 c 85.16,-4.68 91.76,-38.82 72.62,-58.9 -19.15,-20.08 -18.48,-32.8 -18.48,-32.8 0,0 -27.07,15.39 -17.16,34.13 9.9,18.74 -28.39,8.7 -38.95,28.78 -10.57,20.09 1.97,28.79 1.97,28.79 z"
   style="fill:#efa204;fill-rule:nonzero"
   id="path14" />
        <path
   d="m 210.827,111.107 c -19.15,24.76 -13.2,51.54 -3.96,58.9 9.24,7.36 21.79,-6.02 11.22,-20.75 -10.56,-14.73 -7.26,-38.15 -7.26,-38.15 z"
   style="fill:#facf67;fill-rule:nonzero"
   id="path15" />
        <path
   d="m 161.147,126.667 c -5.28,35.47 9.9,37.48 19.15,53.54 9.24,16.06 -1.98,39.49 -1.98,39.49 0,0 25.09,-21.42 14.52,-37.48 -10.56,-16.06 -36.31,-22.09 -31.69,-55.55 z"
   style="fill:#facf67;fill-rule:nonzero"
   id="path16" />
        <path
   d="m 231.127,271.907 c -47.53,12.05 -56.12,-63.58 -17.83,-87.68 38.29,-24.09 42.91,-34.13 34.99,-60.24 -7.92,-26.11 -9.24,-32.8 -9.24,-32.8 0,0 30.37,17.4 34.33,55.55 3.96,38.15 -27.89,63.49 -43.57,76.97 -30.37,26.11 1.32,48.2 1.32,48.2 z"
   style="fill:#facf67;fill-rule:nonzero"
   id="path17" />
        <path
   d="m 264.327,311.237 c 47.53,0 38.62,-43.17 38.62,-43.17 0,0 -8.91,11.04 -26.24,7.03 -17.33,-4.01 -12.38,36.14 -12.38,36.14 z"
   style="fill:#fce8b3;fill-rule:nonzero"
   id="path18" />
        <path
   d="m 219.907,299.347 c 76.58,-3.35 70.64,-30.12 52.15,-48.19 -18.48,-18.07 -19.15,-25.43 -19.15,-25.43 0,0 -15.84,15.39 -3.3,28.78 12.54,13.39 -38.95,16.06 -38.95,16.06 z"
   style="fill:#facf67;fill-rule:nonzero"
   id="path19" />
        <path
   d="m 247.627,279.937 c 0,0 39.64,6.88 33.03,30.3 -6.6,23.43 -42.28,36.63 -99.05,15.88 -56.78,-20.75 -72.62,-60.24 -38.29,-72.95 34.33,-12.72 23.11,-34.8 23.11,-34.8 0,0 25.09,6.02 29.05,24.76 3.96,18.74 52.15,36.81 52.15,36.81 z"
   style="fill:#facf67;fill-rule:nonzero"
   id="path20" />
        <path
   d="m 246.967,310.047 c -117.51,2.68 -73.28,-98.39 -46.21,-113.11 27.07,-14.72 52.15,-21.42 56.78,-36.81 l 4.62,-15.39 c 0,0 9.24,32.79 -21.79,53.54 -31.03,20.75 -48.19,46.85 -27.07,68.94 21.13,22.09 45.55,9.37 45.55,-4.02 0,-13.39 -2.64,-16.06 -2.64,-16.06 0,0 25.75,13.39 16.5,32.13 -9.23,18.74 -25.74,30.78 -25.74,30.78 z"
   style="fill:#fce8b3;fill-rule:nonzero"
   id="path21" />
        <path
   d="m 237.727,304.697 c -63.38,26.77 -109.59,10.71 -113.55,-18.07 -3.96,-28.78 33.67,-35.47 33.67,-35.47 0,0 -21.13,23.42 1.98,33.46 23.11,10.04 48.85,4.69 48.85,4.69 0,0 67.2,3.53 70.5,18.92 3.3,15.39 -29.57,29.94 -63.24,20.57 -33.67,-9.37 -50.17,-16.06 -50.17,-16.06 z"
   style="fill:#fce8b3;fill-rule:nonzero"
   id="path22" />
        <path
   d="m 218.587,107.257 c 13.2,-35.47 -4.62,-58.23 -4.62,-58.23 0,0 5.28,20.08 2.64,32.8 -2.65,12.71 1.98,25.43 1.98,25.43 z"
   style="fill:#fce8b3;fill-rule:nonzero"
   id="path23" />
        <path
   d="m 276.677,174.857 c 19.15,-22.09 0,-61.57 0,-61.57 z"
   style="fill:#fce8b3;fill-rule:nonzero"
   id="path24" />
        <path
   d="m 270.757,328.307 c -36.28,24.61 -104.14,4.52 -125.26,-11.54 -21.13,-16.06 -7.46,-35.49 -7.46,-35.49 0,0 -1.32,22.09 31.03,24.09 32.35,2.01 24.46,-12.2 24.46,-12.2 0,0 -19.17,-17.92 -15.21,-44.69 3.96,-26.77 17.82,-30.12 17.82,-30.12 0,0 -21.13,20.08 -3.96,42.17 17.16,22.09 23.46,25.78 47.89,29.13 24.43,3.35 25.25,15.06 51,15.06 15.46,0 -20.31,23.59 -20.31,23.59 z"
   style="fill:#ffffff;fill-rule:nonzero"
   id="path25" />
        <path
   d="m 233.627,171.697 c 22.28,-14.05 18.32,-25.1 5.45,-36.64 -12.87,-11.54 -12.38,-23.09 -12.38,-23.09 0,0 -5.79,12.7 2.48,21.08 6.44,6.53 9.41,13.55 9.41,22.09 -0.01,7.68 -4.96,16.56 -4.96,16.56 z"
   style="fill:#fc0001;fill-rule:nonzero"
   id="path26" />
        <path
   d="m 278.187,315.257 c -38.62,-9.03 -14.85,-32.12 0.99,-32.63 15.84,-0.5 17.33,-2.01 17.33,-2.01 l -1.49,31.12 z"
   style="fill:#ffffff;fill-rule:nonzero"
   id="path27" />
        <path
   d="m 221.747,303.207 c 35.65,-4.52 44.26,-4.21 46.54,-18.07 1.98,-12.05 -2.97,-19.07 -2.97,-19.07 0,0 -0.83,15.69 -23.27,21.08 -18.81,4.52 -38.12,-12.55 -38.12,-12.55 z"
   style="fill:#ffffff;fill-rule:nonzero"
   id="path28" />
        <path
   d="m 235.117,271.087 c 0,0 -32.68,0.5 -23.27,-36.64 5.62,-22.19 28.72,-21.08 25.75,-46.68 -1.65,-14.19 7.43,6.53 3.96,18.57 -3.47,12.05 -14.36,17.07 -6.93,33.63 7.43,16.56 12.5,15.58 13.86,26.6 0.49,4.01 -13.37,4.52 -13.37,4.52 z"
   style="fill:#fc0001;fill-rule:nonzero"
   id="path29" />
        <path
   d="m 236.597,262.047 c -23.77,-4.52 -19.13,-29.44 -12.87,-36.14 5.06,-5.42 8.42,-8.53 8.42,-8.53 0,0 -9.41,16.06 -0.99,27.1 8.41,11.05 5.44,17.57 5.44,17.57 z"
   style="fill:#fce8b3;fill-rule:nonzero"
   id="path30" />
    </g><g
       id="g60">
        <path
   d="m 357.907,317.867 c 53.47,4.41 68.22,-23.05 56.24,-60.82 -11.99,-37.77 0,-48.07 0,-48.07 0,0 -15.67,7.85 -17.52,18.15 -1.84,10.3 -16.54,16.64 -21.18,9.3 -4.64,-7.34 -5.1,2.47 -5.1,2.47 z"
   style="fill:#fc0001;fill-rule:nonzero"
   id="path31" />
        <path
   d="m 239.897,305.107 c -21.21,-23.54 -4.15,-37.28 7.38,-47.09 11.52,-9.81 -5.07,-27.47 -5.07,-27.47 0,0 21.67,3.92 20.28,17.17 -1.38,13.24 -6.91,32.37 -3.23,41.2 3.68,8.84 -19.36,16.19 -19.36,16.19 z"
   style="fill:#fc0001;fill-rule:nonzero"
   id="path32" />
        <path
   d="m 329.327,198.457 c -23.96,-23.97 5.67,-28.68 10.36,-57.07 4.62,-27.99 -10.8,-51.48 -21.72,-61.81 -0.03,-0.04 -0.07,-0.07 -0.1,-0.11 -15.19,-15.8 8.35,-27.13 -4.64,-57.69 0,0 1.37,16.74 -6.84,25.47 -8.21,8.73 -20.34,20.66 -5.29,51.95 2.11,4.39 3.49,8.63 4.31,12.65 0.45,8.84 -3.17,16.66 -17.75,24.79 -45.1,25.14 -6.25,52.99 -6.25,67.5 0,14.51 -17.71,18.93 -16.15,30.28 1.56,11.36 11.25,6.46 1.56,15.77 -21.57,20.73 -43.88,58.05 9.78,76.98 0,0 78.26,13.23 90.24,-23.36 11.97,-36.58 -13.55,-81.38 -37.51,-105.35 z"
   style="fill:#fc0001;fill-rule:nonzero"
   id="path33" />
        <path
   d="m 322.797,315.737 c 91.63,25.47 67.7,-60.39 52.65,-79.31 -15.04,-18.92 17.93,-36.79 17.78,-61.12 -0.26,-43.04 -25.05,-58.08 -38.05,-70.78 -26.26,-25.67 -1.82,-46.56 -1.82,-46.56 0,0 -30.31,9.94 -22.79,33.95 9.45,30.19 -37.18,108.86 -22.82,157.61 14.36,48.74 15.05,66.21 15.05,66.21 z"
   style="fill:#fc0001;fill-rule:nonzero"
   id="path34" />
        <path
   d="m 352.807,310.167 c -61.47,16.35 -101.42,-30.09 -78.06,-52.98 23.36,-22.89 -5.53,-13.73 14.14,-54.29 19.67,-40.55 -37.49,-30.74 1.23,-61.48 38.72,-30.74 20.9,-44.47 15.37,-64.1 -5.53,-19.62 3.07,-26.82 3.07,-26.82 0,0 -8.61,20.93 7.38,33.36 15.98,12.43 41.8,48.4 44.26,82.41 2.46,34.01 3.69,68.02 13.52,100.72 9.82,32.71 -20.91,43.18 -20.91,43.18 z"
   style="fill:#fb6d01;fill-rule:nonzero"
   id="path35" />
        <path
   d="m 338.667,81.907 c -6.15,26.16 6.15,78.48 6.15,78.48 l -3.69,85.68 c 0,0 29.5,-20.28 38.11,-53.63 8.61,-33.36 -1.84,-54.28 -22.74,-74.56 -20.9,-20.27 -17.83,-35.97 -17.83,-35.97 z"
   style="fill:#fb6d01;fill-rule:nonzero"
   id="path36" />
        <path
   d="m 279.657,72.747 c -15.98,29.43 14.09,23.72 7.99,44.47 -3.07,10.46 -10.45,14.39 -10.45,14.39 0,0 13.52,-15.04 -4.92,-26.82 -18.43,-11.76 7.38,-32.04 7.38,-32.04 z"
   style="fill:#fc0001;fill-rule:nonzero"
   id="path37" />
        <path
   d="m 392.757,211.407 c 13.52,-10.46 12.91,-32.7 12.91,-32.7 0,0 3.78,21.64 1.23,26.16 -5.53,9.81 -14.14,6.54 -14.14,6.54 z"
   style="fill:#fc0001;fill-rule:nonzero"
   id="path38" />
        <path
   d="m 264.577,214.287 c -24.13,-12.42 -14.79,-46.38 -14.79,-46.38 0,0 -0.78,19.88 8.56,28.16 9.34,8.28 17.12,9.94 15.57,14.91 -1.56,4.97 -9.34,3.31 -9.34,3.31 z"
   style="fill:#fc0001;fill-rule:nonzero"
   id="path39" />
        <path
   d="m 344.997,321.787 c 62.23,7.85 65.92,-22.56 65.46,-40.71 -0.46,-18.15 -9.68,-27.96 -8.76,-38.26 0.92,-10.3 2.77,-12.26 2.77,-12.26 0,0 -10.14,7.85 -8.3,18.64 1.84,10.79 -11.57,15.17 -19.38,7.34 -7.82,-7.83 -31.79,65.25 -31.79,65.25 z"
   style="fill:#fb6d01;fill-rule:nonzero"
   id="path40" />
        <path
   d="m 324.247,315.907 c 95.42,18.15 81.59,-23.54 77.91,-48.56 -3.69,-25.02 4.15,13.73 -27.2,9.81 -31.34,-3.93 -50.71,38.75 -50.71,38.75 z"
   style="fill:#facf67;fill-rule:nonzero"
   id="path41" />
        <path
   d="m 326.987,108.067 c 40.57,48.4 57.78,69.98 32.58,103.34 -25.2,33.36 -35.65,37.93 -20.9,56.9 14.75,18.97 9.22,54.28 -35.04,51.67 -44.26,-2.62 -64.54,-32.7 -26.43,-56.9 38.11,-24.2 12.91,-36.63 22.74,-62.13 9.83,-25.51 41.18,-29.43 35.04,-59.52 -6.14,-30.09 -7.99,-33.36 -7.99,-33.36 z"
   style="fill:#efa204;fill-rule:nonzero"
   id="path42" />
        <path
   d="m 305.477,134.887 c -26.43,24.2 0,63.44 14.75,57.56 14.75,-5.89 19.05,-20.28 0,-31.39 -19.05,-11.13 -14.75,-26.17 -14.75,-26.17 z"
   style="fill:#efa204;fill-rule:nonzero"
   id="path43" />
        <path
   d="m 309.167,314.087 c 79.29,-4.58 85.44,-37.93 67.61,-57.55 -17.83,-19.62 -17.21,-32.05 -17.21,-32.05 0,0 -25.2,15.04 -15.98,33.36 9.22,18.31 -26.43,8.5 -36.27,28.12 -9.84,19.62 1.85,28.12 1.85,28.12 z"
   style="fill:#efa204;fill-rule:nonzero"
   id="path44" />
        <path
   d="m 315.467,124.257 c -17.83,24.2 -12.29,50.36 -3.69,57.56 8.61,7.19 20.28,-5.89 10.45,-20.28 -9.83,-14.39 -6.76,-37.28 -6.76,-37.28 z"
   style="fill:#facf67;fill-rule:nonzero"
   id="path45" />
        <path
   d="m 269.217,139.457 c -4.92,34.66 9.22,36.63 17.83,52.32 8.61,15.7 -1.84,38.59 -1.84,38.59 0,0 23.36,-20.93 13.52,-36.63 -9.84,-15.69 -33.82,-21.57 -29.51,-54.28 z"
   style="fill:#facf67;fill-rule:nonzero"
   id="path46" />
        <path
   d="m 334.367,281.387 c -44.26,11.77 -52.25,-62.13 -16.6,-85.68 35.65,-23.55 39.95,-33.36 32.58,-58.86 -7.38,-25.51 -8.61,-32.05 -8.61,-32.05 0,0 28.27,17.01 31.96,54.28 3.69,37.28 -25.97,62.04 -40.57,75.21 -28.26,25.52 1.24,47.1 1.24,47.1 z"
   style="fill:#facf67;fill-rule:nonzero"
   id="path47" />
        <path
   d="m 365.277,319.827 c 44.25,0 35.96,-42.18 35.96,-42.18 0,0 -8.3,10.79 -24.43,6.87 -16.14,-3.93 -11.53,35.31 -11.53,35.31 z"
   style="fill:#fce8b3;fill-rule:nonzero"
   id="path48" />
        <path
   d="m 323.917,308.197 c 71.3,-3.27 65.77,-29.43 48.56,-47.09 -17.21,-17.66 -17.83,-24.85 -17.83,-24.85 0,0 -14.75,15.04 -3.07,28.12 11.68,13.08 -36.27,15.7 -36.27,15.7 z"
   style="fill:#facf67;fill-rule:nonzero"
   id="path49" />
        <path
   d="m 349.737,289.237 c 0,0 36.9,6.72 30.76,29.61 -6.15,22.89 -39.36,35.79 -92.22,15.52 -52.86,-20.28 -67.61,-58.86 -35.65,-71.29 31.96,-12.43 21.51,-34.01 21.51,-34.01 0,0 23.36,5.89 27.05,24.2 3.68,18.31 48.55,35.97 48.55,35.97 z"
   style="fill:#facf67;fill-rule:nonzero"
   id="path50" />
        <path
   d="m 349.117,318.667 c -109.41,2.62 -68.23,-96.14 -43.03,-110.53 25.2,-14.39 48.56,-20.93 52.86,-35.97 l 4.3,-15.04 c 0,0 8.61,32.05 -20.28,52.32 -28.89,20.28 -44.87,45.78 -25.2,67.37 19.67,21.58 42.41,9.16 42.41,-3.92 0,-13.08 -2.46,-15.7 -2.46,-15.7 0,0 23.97,13.08 15.37,31.39 -8.6,18.31 -23.97,30.08 -23.97,30.08 z"
   style="fill:#fce8b3;fill-rule:nonzero"
   id="path51" />
        <path
   d="m 340.517,313.437 c -59.01,26.16 -102.03,10.46 -105.72,-17.66 -3.69,-28.12 31.35,-34.66 31.35,-34.66 0,0 -19.67,22.89 1.84,32.7 21.51,9.81 45.49,4.58 45.49,4.58 0,0 62.57,3.45 65.64,18.49 3.07,15.04 -27.53,29.25 -58.88,20.1 -31.35,-9.16 -46.71,-15.7 -46.71,-15.7 z"
   style="fill:#fce8b3;fill-rule:nonzero"
   id="path52" />
        <path
   d="m 322.687,120.497 c 12.29,-34.66 -4.3,-56.9 -4.3,-56.9 0,0 4.92,19.62 2.46,32.05 -2.46,12.42 1.84,24.85 1.84,24.85 z"
   style="fill:#fce8b3;fill-rule:nonzero"
   id="path53" />
        <path
   d="m 376.777,186.547 c 17.83,-21.58 0,-60.17 0,-60.17 z"
   style="fill:#fce8b3;fill-rule:nonzero"
   id="path54" />
        <path
   d="m 371.267,336.507 c -33.78,24.05 -96.96,4.42 -116.63,-11.28 -19.67,-15.7 -6.94,-34.68 -6.94,-34.68 0,0 -1.23,21.58 28.89,23.55 30.12,1.96 22.77,-11.92 22.77,-11.92 0,0 -17.85,-17.51 -14.16,-43.67 3.69,-26.16 16.6,-29.43 16.6,-29.43 0,0 -19.67,19.62 -3.69,41.2 15.98,21.58 21.85,25.2 44.59,28.47 22.74,3.27 23.51,14.72 47.48,14.72 14.4,-0.02 -18.91,23.04 -18.91,23.04 z"
   style="fill:#ffffff;fill-rule:nonzero"
   id="path55" />
        <path
   d="m 336.697,183.467 c 20.74,-13.73 17.06,-24.53 5.07,-35.81 -11.99,-11.28 -11.52,-22.56 -11.52,-22.56 0,0 -5.39,12.42 2.3,20.6 5.99,6.38 8.76,13.24 8.76,21.58 0,7.51 -4.61,16.19 -4.61,16.19 z"
   style="fill:#fc0001;fill-rule:nonzero"
   id="path56" />
        <path
   d="m 378.187,323.747 c -35.96,-8.83 -13.83,-31.39 0.92,-31.88 14.75,-0.49 16.13,-1.96 16.13,-1.96 l -1.38,30.41 z"
   style="fill:#ffffff;fill-rule:nonzero"
   id="path57" />
        <path
   d="m 325.637,311.977 c 33.19,-4.41 41.21,-4.11 43.33,-17.66 1.84,-11.77 -2.77,-18.64 -2.77,-18.64 0,0 -0.77,15.34 -21.67,20.6 -17.52,4.41 -35.5,-12.26 -35.5,-12.26 z"
   style="fill:#ffffff;fill-rule:nonzero"
   id="path58" />
        <path
   d="m 338.077,280.587 c 0,0 -30.42,0.49 -21.67,-35.81 5.23,-21.69 26.74,-20.6 23.97,-45.62 -1.53,-13.86 6.91,6.38 3.69,18.15 -3.23,11.77 -13.37,16.68 -6.45,32.86 6.91,16.19 11.64,15.22 12.91,26 0.46,3.93 -12.45,4.42 -12.45,4.42 z"
   style="fill:#fc0001;fill-rule:nonzero"
   id="path59" />
        <path
   d="m 339.467,271.757 c -22.13,-4.41 -17.81,-28.77 -11.99,-35.32 4.71,-5.3 7.84,-8.34 7.84,-8.34 0,0 -8.76,15.7 -0.92,26.49 7.83,10.79 5.07,17.17 5.07,17.17 z"
   style="fill:#fce8b3;fill-rule:nonzero"
   id="path60" />
    </g><circle
       cx="266.35699"
       cy="330.77701"
       r="135.32001"
       style="fill:#052b51"
       id="circle60" /><g
       id="g86">
        <g
   id="g84">
        <g
   id="g83">
            <g
   id="g82">
            <path
   d="m 397.917,330.547 c 0.13,72.49 -58.53,131.36 -131.02,131.49 -72.49,0.12 -131.36,-58.54 -131.49,-131.02 -0.13,-72.49 58.53,-131.36 131.03,-131.49 72.49,-0.13 131.36,58.53 131.48,131.02 z"
   style="fill:url(#_Radial1);fill-rule:nonzero"
   id="path61" />
            <path
   d="m 157.077,319.317 c 0,0 -7.53,15.05 -11.06,34.75 -1.87,9.95 -1.36,13.81 6.33,24.76 14.72,20.93 20.18,26.64 25.22,25.79 5.03,-0.86 28.73,-5.99 35.65,-7.69 5.24,-1.28 5.24,-2.55 7.32,-11.66 2.09,-9.11 5.42,-21.82 6.24,-28.81 0.83,-6.98 -0.22,-6.77 -6.32,-14.39 -6.1,-7.61 -20.6,-27.06 -23.54,-30.66 -2.95,-3.6 -4.41,-2.53 -11.33,-1.46 -6.92,1.07 -17.4,3.84 -22.43,5.12 -5.04,1.29 -5.04,2.56 -6.08,4.25 z"
   style="fill:#ffffff;fill-rule:nonzero"
   id="path62" />
            <path
   d="m 167.177,248.107 c 0,0 -6.43,8.62 -12.26,18.74 -3.23,5.89 -2.24,14.38 -0.27,30.72 1.97,16.33 3.59,16.33 9.73,15.01 6.15,-1.32 23.3,-4.94 27.83,-5.93 4.53,-0.99 8.08,-8.84 12.27,-15.7 4.2,-6.87 20.96,-28.54 24.34,-31.98 3.2,-2.85 2.25,-5.71 1.3,-13.31 -0.96,-7.61 -3.25,-23.39 -5.32,-23.95 -2.07,-0.57 -18.09,-0.56 -24.12,-0.92 -6.02,-0.39 -21.28,11.94 -33.5,27.32 z"
   style="fill:#ffffff;fill-rule:nonzero"
   id="path63" />
            <path
   d="m 228.777,357.147 c 0,0 -6.31,25.46 -8.41,35.29 -1.05,5.78 -1.25,7.06 10.62,14.95 11.87,7.88 17.81,12.58 21.63,14.71 3.82,2.14 7.2,2.13 18.21,-0.46 11.01,-2.58 21.91,-4.91 26.46,-6.89 4.45,-1.93 11.41,-17.33 14.56,-27.6 3.16,-10.27 5.68,-18.61 1.23,-22.24 -4.45,-3.63 -9.76,-9.18 -16.97,-14.08 -7.21,-4.91 -13.36,-11.31 -16.11,-10.02 -2.75,1.29 -31.19,8.43 -42.19,11.38 -5.22,1.48 -8.64,2.75 -9.03,4.96 z"
   style="fill:#ffffff;fill-rule:nonzero"
   id="path64" />
            <path
   d="m 251.047,457.897 c 0,0 5.18,-21.74 6.01,-27.01 0.83,-5.27 2.71,-5.49 10.23,-6.77 7.52,-1.28 27.57,-7.22 31.12,-8.49 3.55,-1.27 5.67,-1.93 11.74,2.7 6.07,4.63 19.63,14.75 24.24,17.91 3.35,2.31 -12.15,13.54 -32.36,19.04 -23.39,6.37 -51.18,6.21 -50.98,2.62 z"
   style="fill:#ffffff;fill-rule:nonzero"
   id="path65" />
            <path
   d="m 232.997,253.237 c 0,0 -2.79,-15.73 -3.81,-24.35 -1.02,-8.63 -0.01,-7.62 11.29,-12.46 11.31,-4.84 38.2,-10.98 43.98,-11.5 5.78,-0.52 12.57,1.25 27.17,8.58 14.59,7.33 18.37,9.86 19.14,14.18 0.76,4.31 2.55,24.1 2.82,33.24 -0.24,6.34 -2.42,5.6 -13.17,10.03 -11.02,4.54 -21.54,8.97 -24.12,10.46 -3.5,1.49 -9.39,-2.01 -19.08,-8.29 -8.61,-5.57 -26.28,-13.21 -33.84,-15.42 -7.56,-2.22 -9.51,-0.77 -10.38,-4.47 z"
   style="fill:#ffffff;fill-rule:nonzero"
   id="path66" />
            <path
   d="m 294.067,288.517 c 0,0 -5.4,24.56 -7.96,37.11 -2.57,12.02 -1.79,13.85 5.47,19.32 7.25,5.47 15.55,13.29 19.95,16.68 4.41,3.39 7.27,7.32 21.23,3.36 17.59,-4.99 22.25,-6.31 27.67,-8.15 5.43,-1.84 6.46,-3.93 8.52,-13.86 2.05,-9.93 3.58,-24.82 4.6,-32.92 1.02,-8.09 -0.53,-9.4 -7.01,-15.92 -6.48,-6.51 -18.66,-16.94 -23.33,-21.63 -4.66,-4.69 -8.03,-5.21 -13.72,-3.11 -5.69,2.1 -21.2,7.87 -26.89,11.01 -5.7,3.14 -7.77,3.4 -8.53,8.11 z"
   style="fill:#ffffff;fill-rule:nonzero"
   id="path67" />
            <path
   d="m 388.447,297.837 c 0,0 -8.45,2.8 -11.03,4.02 -2.59,1.22 -2.23,9.58 -3.25,18.12 -1.02,8.53 -4.09,24.91 -6.15,32.23 -1.2,3.48 3.61,6.4 7.61,12.88 6.23,10.09 9.52,15.66 10.9,13.74 1.38,-1.91 10.31,-21.61 9.91,-54.17 -1.07,-14.64 -3.68,-29.26 -7.99,-26.82 z"
   style="fill:#ffffff;fill-rule:nonzero"
   id="path68" />
            <path
   d="m 142.177,370.077 c 0,0 1.23,-3.58 2.32,-1.72 1.08,1.87 13.46,22.25 23.51,33.13 3.55,3.42 4.48,4.35 4.96,10.74 0.47,6.39 -0.3,7.94 -4.01,4.21 -3.71,-3.72 -21.64,-26.28 -26.78,-46.36 z"
   style="fill:#ffffff;fill-rule:nonzero"
   id="path69" />
            <path
   d="m 293.127,202.427 c 0,0 -1.85,-0.62 -2.62,0.16 -0.77,0.78 3.55,2.02 11.12,5.28 7.56,3.25 19.3,9.15 24.24,12.57 3.4,2.02 4.79,2.48 7.72,1.23 2.93,-1.25 3.85,-1.72 0.46,-3.58 -3.41,-1.86 -25.03,-13.35 -40.92,-15.66 z"
   style="fill:#ffffff;fill-rule:nonzero"
   id="path70" />
            <path
   d="m 289.887,419.457 c 0,0 -16.35,4.03 -26.85,6.38 -6.9,0.89 -6.03,12.49 -9.06,25.3 0,0 4.15,-14.81 6.24,-20.13 2.1,-5.3 10.64,-3.76 29.67,-11.55 z"
   style="fill:#979797;fill-rule:nonzero"
   id="path71" />
            <path
   d="m 173.697,242.667 c 0,0 14.91,-15.65 20.98,-19.02 6.08,-3.36 29.03,-1.11 29.03,-1.11 0,0 -16.11,0.53 -23.69,0.97 -7.58,0.43 -26.32,19.16 -26.32,19.16 z"
   style="fill:#ffffff;fill-rule:nonzero"
   id="path72" />
            <path
   d="m 255.987,212.947 c 0,0 23.13,-6.71 30.35,-7.03 7.21,-0.31 21.65,5.73 37.59,14.8 -17.75,-7.85 -30.99,-12.99 -36.39,-12.98 -5.41,0.01 -31.55,5.21 -31.55,5.21 z"
   style="fill:#ffffff;fill-rule:nonzero"
   id="path73" />
            <path
   d="m 169.377,315.637 c 0,0 20.69,-5.26 23.8,-4.75 3.11,0.52 27.49,33.91 27.49,33.91 0,0 -21.27,-26.08 -27.48,-29.21 -6.22,-3.12 -23.81,0.05 -23.81,0.05 z"
   style="fill:#ffffff;fill-rule:nonzero"
   id="path74" />
            <path
   d="m 351.227,281.167 c 0,0 14.12,13.22 18.26,17.39 4.14,4.16 3.9,4.41 0.3,34.84 1.67,-19.38 2.62,-27.48 -1.03,-32.38 -3.64,-4.91 -17.53,-19.85 -17.53,-19.85 z"
   style="fill:url(#_Linear2);fill-rule:nonzero"
   id="path75" />
            <g
   id="g81">
                <path
   d="m 223.657,369.127 c 0,0 -3.34,15.16 -5.17,21.98 -1.83,6.81 -8.27,5.89 -24.82,9.33 17.47,-5.29 21.76,-5.92 23.28,-10.56 1.53,-4.65 6.71,-20.75 6.71,-20.75 z"
   style="fill:#ffffff;fill-rule:nonzero"
   id="path76" />
                <path
   d="m 223.917,379.707 c 0,0 3.6,-14.9 4.88,-20.91 1.8,-5.75 13.19,-6.56 25.09,-9.71 0,0 -11.12,3.68 -18.36,6.56 -7.25,2.9 -7.23,12.57 -11.61,24.06 z"
   style="fill:#ffffff;fill-rule:nonzero"
   id="path77" />
                <path
   d="m 230.837,406.157 c 0,0 13.05,9.29 18.78,13.13 5.73,3.84 8.91,4.16 23.85,0.92 14.94,-3.23 19.08,-4.85 19.08,-4.85 0,0 -20.98,4.53 -31.79,4.87 -10.82,0.35 -29.92,-14.07 -29.92,-14.07 z"
   style="fill:#ffffff;fill-rule:nonzero"
   id="path78" />
                <path
   d="m 286.797,329.547 c 0,0 5.89,-32.26 7.76,-39.85 1.86,-7.59 15.32,-11.72 29.41,-17.44 0,0 -15.96,8.25 -22.21,12.37 -6.27,4.12 -5.63,8.86 -14.96,44.92 z"
   style="fill:#ffffff;fill-rule:nonzero"
   id="path79" />
                <path
   d="m 299.867,355.517 c 0,0 9.47,7.72 12.54,10.55 3.07,2.83 3.08,10.05 -6.33,32.76 4.06,-15.22 9.66,-28.13 4.03,-33.27 -5.64,-5.14 -10.24,-10.04 -10.24,-10.04 z"
   style="fill:#ffffff;fill-rule:nonzero"
   id="path80" />
                <path
   d="m 153.977,384.637 c 0,0 7.55,10.31 12.81,16.13 4.58,4.75 5.53,5.56 5.54,15.2 -0.69,-6.24 -1.51,-9.28 -4.47,-12.4 -2.96,-3.11 -13.88,-18.93 -13.88,-18.93 z"
   style="fill:#ffffff;fill-rule:nonzero"
   id="path81" />
            </g>
            </g>
        </g>
        <path
   d="m 266.137,199.457 c -72.5,0.13 -131.16,58.99 -131.03,131.49 0.13,72.49 59,131.15 131.49,131.02 72.48,-0.13 131.14,-59 131.02,-131.49 -0.13,-72.49 -59,-131.14 -131.48,-131.02 z m -1.05,235.31 c -66.15,0.12 -119.87,-50.76 -119.98,-113.65 -0.11,-62.88 53.42,-113.96 119.58,-114.07 66.15,-0.12 119.86,50.77 119.97,113.65 0.11,62.88 -53.42,113.95 -119.57,114.07 z"
   style="fill:#cfd1d2;fill-rule:nonzero"
   id="path83" />
        </g>
        <g
   id="g85">
        
        <path
   d="m 222.247,290.377 c 1.62,1.91 0.98,5.13 -1.44,7.18 -2.42,2.05 -5.7,2.16 -7.32,0.24 -1.62,-1.92 -0.98,-5.13 1.44,-7.18 2.43,-2.05 5.7,-2.16 7.32,-0.24 z"
   style="fill:#4a4b4c;fill-rule:nonzero"
   id="path85" />
        </g>
    </g><path
       d="m 552.897,343.667 -2.2,-2.02 c 2.03,-3.05 2.97,-6.59 2.73,-10.36 l -0.58,-9.15 c -0.29,-4.55 -2.26,-8.55 -5.7,-11.58 -3.14,-2.76 -6.97,-4.22 -11.09,-4.22 -0.37,0 -0.74,0.01 -1.12,0.04 l -29.2,1.86 c -1.03,0.06 -2.03,0.29 -2.97,0.65 -0.76,-0.18 -1.55,-0.29 -2.36,-0.29 -0.22,0 -0.43,0.01 -0.65,0.02 l -24.73,1.57 c -0.62,0.04 -1.22,0.12 -1.82,0.22 2.36,-3.34 3.47,-7.29 3.21,-11.48 l -0.55,-8.61 c -0.19,-3.04 -1.07,-5.85 -2.57,-8.31 0.75,-1.53 1.13,-3.28 1.01,-5.11 l -0.53,-8.4 c -0.34,-5.36 -4.8,-9.48 -10.1,-9.48 -0.22,0 -0.43,0.01 -0.65,0.02 l -24.38,1.55 c -2.56,0.16 -4.96,0.95 -7.1,2.25 -1.57,-0.94 -3.37,-1.44 -5.21,-1.44 -0.21,0 -0.43,0.01 -0.64,0.02 l -27.18,1.73 c -2.48,0.16 -4.81,0.89 -6.89,2.11 -1.52,-0.87 -3.24,-1.33 -5.01,-1.33 -0.21,0 -0.43,0.01 -0.64,0.02 l -8.7,0.55 c -3.7,0.23 -6.8,2.43 -8.38,5.5 l -0.71,-0.84 c -1.93,-2.27 -4.76,-3.57 -7.72,-3.57 -0.21,0 -0.43,0.01 -0.64,0.02 l -8.7,0.55 c -1.15,0.07 -2.25,0.35 -3.26,0.77 -0.86,-0.24 -1.76,-0.37 -2.68,-0.37 -0.22,0 -0.43,0.01 -0.65,0.02 l -8.7,0.55 c -1.98,0.13 -3.85,0.83 -5.42,2 -1.91,-0.81 -3.96,-1.23 -6.1,-1.23 -0.34,0 -0.68,0.01 -1.03,0.03 l -27.18,1.73 c -1.83,0.12 -3.51,0.72 -4.94,1.67 -1.71,-0.63 -3.52,-0.98 -5.4,-0.98 -0.34,0 -0.68,0.01 -1.03,0.03 l -27.18,1.73 c -1.13,0.07 -2.23,0.34 -3.25,0.77 -0.86,-0.24 -1.76,-0.37 -2.69,-0.37 -0.22,0 -0.43,0.01 -0.65,0.02 l -24.37,1.55 c -4.63,0.29 -42.05,2.85 -44.51,2.85 -0.21,0 -0.43,0.01 -0.64,0.02 l -8.7,0.55 c -3.94,0.25 -7.2,2.73 -8.66,6.12 -1.81,-3.08 -5.11,-5 -8.71,-5 -0.21,0 -0.43,0.01 -0.65,0.02 l -10.48,0.67 c -4.2,0.27 -7.8,3.11 -9.03,7.13 l -0.51,1.66 c -0.59,-0.86 -1.26,-1.67 -2,-2.42 -3.15,-3.19 -7.08,-4.87 -11.38,-4.87 -0.34,0 -0.68,0.01 -1.03,0.03 l -27.18,1.73 c -2.04,0.13 -3.89,0.86 -5.41,2 -1.91,-0.81 -3.96,-1.23 -6.1,-1.23 -0.34,0 -0.69,0.01 -1.03,0.03 l -22.31,1.42 c -2.17,0.14 -4.24,0.73 -6.12,1.69 -1.33,-0.64 -2.81,-1 -4.36,-1 -0.22,0 -0.43,0.01 -0.65,0.02 l -23.02,1.46 c -4.63,0.29 -8.78,2.56 -11.69,6.36 -2.63,3.44 -3.87,7.58 -3.59,12 l 1.48,23.25 c 0.28,4.41 2.03,8.37 5.07,11.44 3.14,3.18 7.08,4.87 11.38,4.87 0.34,0 0.68,-0.01 1.03,-0.03 l 23.02,-1.46 c 1.74,-0.11 3.4,-0.67 4.84,-1.6 1.67,0.6 3.43,0.93 5.27,0.93 0.34,0 0.68,-0.01 1.03,-0.03 l 14.54,-0.92 c -1.08,3.09 -0.61,6.53 1.32,9.22 l 13.76,19.21 0.62,9.82 c 0.17,2.68 1.4,5.18 3.41,6.96 1.85,1.63 4.24,2.53 6.69,2.53 0.21,0 0.43,-0.01 0.64,-0.02 l 9.35,-0.59 c 4.5,-0.29 8.12,-3.47 9.17,-7.62 0.57,0.69 1.19,1.34 1.88,1.95 3.14,2.77 6.98,4.23 11.1,4.23 0.37,0 0.74,-0.01 1.12,-0.04 l 23.97,-1.52 c 3.71,-0.24 7.06,-1.61 9.81,-3.98 2.72,1.79 5.83,2.74 9.12,2.74 0.37,0 0.74,-0.01 1.12,-0.04 l 23.97,-1.52 c 4.55,-0.29 8.55,-2.26 11.58,-5.7 0.65,-0.74 1.21,-1.52 1.72,-2.33 0.58,1.54 1.53,2.93 2.79,4.04 1.85,1.63 4.23,2.53 6.69,2.53 0.21,0 0.43,-0.01 0.64,-0.02 l 9.4,-0.6 c 3.53,-0.22 6.52,-2.23 8.15,-5.09 0.41,0.55 0.88,1.06 1.4,1.52 1.85,1.63 4.23,2.53 6.69,2.53 0.21,0 0.43,-0.01 0.64,-0.02 l 9.35,-0.59 c 2.68,-0.17 5.18,-1.4 6.96,-3.41 0.79,-0.9 1.41,-1.93 1.84,-3.03 1.73,3.18 5.09,5.29 8.89,5.29 0.22,0 0.43,-0.01 0.65,-0.02 l 9.35,-0.59 c 5.58,-0.35 19.02,-1.57 24.32,-1.57 0.22,0 0.43,-0.01 0.65,-0.02 l 26.58,-1.69 c 3.62,-0.23 6.87,-1.52 9.57,-3.74 2.65,1.66 5.65,2.53 8.82,2.53 0.37,0 0.74,-0.01 1.12,-0.04 l 23.97,-1.52 c 3.68,-0.23 7,-1.59 9.74,-3.92 2.7,1.76 5.78,2.69 9.04,2.69 0.37,0 0.74,-0.01 1.12,-0.04 l 24.72,-1.57 c 1.83,-0.12 3.58,-0.74 5.07,-1.76 1.83,0.68 3.77,1.03 5.78,1.03 0.37,0 0.74,-0.01 1.12,-0.04 l 24.72,-1.57 c 1.83,-0.12 3.57,-0.74 5.06,-1.76 1.83,0.68 3.77,1.03 5.78,1.03 0.37,0 0.74,-0.01 1.12,-0.04 l 24.72,-1.57 c 1.03,-0.06 2.03,-0.29 2.97,-0.65 0.77,0.19 1.56,0.29 2.36,0.29 0.21,0 0.43,-0.01 0.64,-0.02 l 9.35,-0.59 c 2.68,-0.17 5.18,-1.4 6.96,-3.41 0.41,-0.47 0.78,-0.97 1.09,-1.49 l 1.28,1.18 c 1.88,1.73 4.33,2.68 6.86,2.68 0.21,0 0.43,-0.01 0.64,-0.02 l 11.26,-0.72 c 4.05,-0.26 7.55,-2.91 8.91,-6.73 1.33,-3.88 0.26,-8.15 -2.73,-10.89 z m -364.55,-9.04 0.13,-0.01 c -0.02,0.05 -0.04,0.09 -0.06,0.14 -0.01,-0.05 -0.04,-0.09 -0.07,-0.13 z"
       style="fill:#052b51;fill-rule:nonzero"
       id="path86" /><g
       id="g98">
        <path
   d="m 52.517,334.137 -23.02,1.46 c -1.72,0.11 -3.23,-0.51 -4.56,-1.84 -1.32,-1.34 -2.05,-3 -2.17,-4.97 l -1.48,-23.26 c -0.13,-1.97 0.38,-3.71 1.53,-5.2 1.14,-1.5 2.57,-2.3 4.28,-2.41 l 23.02,-1.46 0.53,8.4 -19.18,1.22 c -0.37,0.02 -0.69,0.21 -0.95,0.55 -0.26,0.34 -0.38,0.73 -0.35,1.16 l 1.12,17.65 c 0.03,0.43 0.19,0.8 0.49,1.1 0.3,0.31 0.64,0.45 1.01,0.42 l 19.18,-1.22 z"
   style="fill-rule:nonzero"
   id="path87" />
        <path
   d="m 85.967,332.007 -22.32,1.42 c -1.72,0.11 -3.23,-0.51 -4.56,-1.85 -1.32,-1.34 -2.05,-3 -2.17,-4.97 l -1.48,-23.25 c -0.13,-1.97 0.38,-3.71 1.53,-5.2 1.14,-1.5 2.57,-2.3 4.29,-2.41 l 22.32,-1.42 c 1.72,-0.11 3.23,0.51 4.56,1.85 1.32,1.34 2.05,3 2.17,4.97 l 1.48,23.25 c 0.13,1.97 -0.38,3.71 -1.52,5.21 -1.16,1.49 -2.59,2.29 -4.3,2.4 z m -4.37,-8.16 c 0.37,-0.02 0.69,-0.21 0.95,-0.55 0.26,-0.34 0.38,-0.73 0.35,-1.16 l -1.12,-17.65 c -0.03,-0.43 -0.19,-0.8 -0.49,-1.1 -0.3,-0.31 -0.64,-0.45 -1.01,-0.42 l -14.64,0.93 c -0.37,0.02 -0.69,0.21 -0.95,0.55 -0.26,0.34 -0.38,0.73 -0.35,1.16 l 1.12,17.65 c 0.03,0.43 0.19,0.8 0.49,1.1 0.3,0.31 0.64,0.45 1.01,0.42 z"
   style="fill-rule:nonzero"
   id="path88" />
        <path
   d="m 133.357,328.987 -10.48,0.67 -11.99,-12.69 -4.54,0.29 0.85,13.4 -8.7,0.55 -2.4,-37.68 27.18,-1.73 c 1.71,-0.11 3.23,0.51 4.56,1.85 1.32,1.34 2.05,3 2.17,4.97 l 0.62,9.8 c 0.13,2.01 -0.38,3.76 -1.52,5.26 -1.14,1.5 -2.57,2.3 -4.29,2.41 l -3.51,0.22 z m -12.9,-21.12 c 0.37,-0.02 0.69,-0.2 0.95,-0.52 0.26,-0.32 0.38,-0.72 0.35,-1.18 l -0.27,-4.2 c -0.03,-0.43 -0.19,-0.8 -0.49,-1.1 -0.3,-0.31 -0.64,-0.45 -1.01,-0.42 l -14.64,0.93 0.47,7.43 z"
   style="fill-rule:nonzero"
   id="path89" />
        <path
   d="m 174.387,326.387 -8.7,0.55 -3.38,-7.41 -15.82,1.01 -2.42,7.77 -8.7,0.55 11.87,-38.59 10.48,-0.67 z m -15.8,-15.1 -5.52,-12.13 -3.93,12.74 z"
   style="fill-rule:nonzero"
   id="path90" />
        <path
   d="m 205.307,324.417 -27.18,1.73 -2.4,-37.68 8.7,-0.55 1.86,29.28 18.48,-1.18 z"
   style="fill-rule:nonzero"
   id="path91" />
        <path
   d="m 250.787,321.527 -24.75,1.57 -0.53,-8.4 20.91,-1.33 c 0.4,-0.03 0.73,-0.21 0.98,-0.55 0.24,-0.34 0.35,-0.73 0.33,-1.16 l -0.19,-3.01 c -0.03,-0.43 -0.18,-0.8 -0.47,-1.11 -0.29,-0.31 -0.63,-0.45 -1.04,-0.42 l -14.97,0.95 c -1.72,0.11 -3.23,-0.5 -4.55,-1.82 -1.32,-1.32 -2.05,-2.98 -2.17,-5 l -0.55,-8.61 c -0.13,-1.97 0.38,-3.71 1.52,-5.2 1.14,-1.5 2.57,-2.3 4.29,-2.41 l 24.38,-1.55 0.53,8.4 -20.54,1.31 c -0.37,0.02 -0.69,0.21 -0.95,0.55 -0.26,0.34 -0.38,0.73 -0.35,1.16 l 0.19,3.01 c 0.03,0.43 0.19,0.8 0.49,1.1 0.3,0.31 0.64,0.45 1.01,0.42 l 14.97,-0.95 c 1.75,-0.11 3.27,0.5 4.58,1.82 1.31,1.32 2.02,2.99 2.15,5 l 0.55,8.61 c 0.13,1.97 -0.38,3.71 -1.5,5.2 -1.14,1.5 -2.58,2.3 -4.32,2.42 z"
   style="fill-rule:nonzero"
   id="path92" />
        <path
   d="m 271.647,320.197 -8.7,0.55 -2.4,-37.68 27.18,-1.73 c 1.72,-0.11 3.23,0.51 4.56,1.85 1.32,1.34 2.05,3 2.17,4.97 l 0.62,9.8 c 0.13,2.01 -0.38,3.76 -1.52,5.26 -1.14,1.5 -2.57,2.3 -4.29,2.41 l -18.48,1.18 z m 13.26,-22.79 c 0.37,-0.02 0.69,-0.2 0.95,-0.52 0.26,-0.32 0.38,-0.72 0.35,-1.18 l -0.27,-4.2 c -0.03,-0.43 -0.19,-0.8 -0.49,-1.1 -0.3,-0.31 -0.64,-0.45 -1.01,-0.42 l -14.64,0.93 0.47,7.43 z"
   style="fill-rule:nonzero"
   id="path93" />
        <path
   d="m 336.357,316.077 -10.48,0.67 -11.99,-12.69 -4.54,0.29 0.85,13.4 -8.7,0.55 -2.4,-37.68 27.18,-1.73 c 1.72,-0.11 3.23,0.51 4.56,1.85 1.32,1.34 2.05,3 2.17,4.97 l 0.62,9.8 c 0.13,2.01 -0.38,3.76 -1.52,5.26 -1.14,1.5 -2.57,2.3 -4.29,2.41 l -3.51,0.22 z m -12.9,-21.12 c 0.37,-0.02 0.69,-0.2 0.95,-0.52 0.26,-0.32 0.38,-0.72 0.35,-1.18 l -0.27,-4.2 c -0.03,-0.43 -0.19,-0.8 -0.49,-1.1 -0.3,-0.31 -0.64,-0.45 -1.01,-0.42 l -14.64,0.93 0.47,7.43 z"
   style="fill-rule:nonzero"
   id="path94" />
        <path
   d="m 349.917,315.217 -8.7,0.55 -2.4,-37.68 8.7,-0.55 z"
   style="fill-rule:nonzero"
   id="path95" />
        <path
   d="m 391.377,312.587 -8.7,0.55 -18.94,-22.31 1.49,23.41 -8.7,0.55 -2.4,-37.68 8.7,-0.55 18.94,22.31 -1.49,-23.41 8.7,-0.55 z"
   style="fill-rule:nonzero"
   id="path96" />
        <path
   d="m 426.227,310.367 -22.32,1.42 c -1.72,0.11 -3.23,-0.51 -4.56,-1.85 -1.32,-1.34 -2.05,-3 -2.17,-4.97 l -1.48,-23.25 c -0.13,-1.97 0.38,-3.71 1.53,-5.2 1.14,-1.5 2.57,-2.3 4.28,-2.41 l 27.18,-1.73 0.53,8.4 -23.35,1.48 c -0.37,0.02 -0.69,0.21 -0.95,0.55 -0.26,0.34 -0.38,0.73 -0.35,1.16 l 1.12,17.65 c 0.03,0.43 0.19,0.8 0.49,1.1 0.3,0.3 0.64,0.45 1.01,0.42 l 14.64,-0.93 c 0.37,-0.02 0.69,-0.21 0.95,-0.55 0.26,-0.34 0.38,-0.73 0.35,-1.16 l -0.29,-4.63 -9.78,0.62 -0.53,-8.4 18.48,-1.18 1.01,15.82 c 0.13,1.97 -0.38,3.71 -1.52,5.21 -1.13,1.52 -2.56,2.32 -4.27,2.43 z"
   style="fill-rule:nonzero"
   id="path97" />
        <path
   d="m 462.857,308.037 -24.75,1.57 -0.53,-8.4 20.91,-1.33 c 0.4,-0.03 0.73,-0.21 0.98,-0.55 0.24,-0.34 0.35,-0.73 0.33,-1.16 l -0.19,-3.01 c -0.03,-0.43 -0.18,-0.8 -0.47,-1.11 -0.29,-0.31 -0.63,-0.45 -1.04,-0.42 l -14.97,0.95 c -1.72,0.11 -3.23,-0.5 -4.55,-1.82 -1.32,-1.32 -2.05,-2.99 -2.17,-5 l -0.55,-8.61 c -0.13,-1.97 0.38,-3.71 1.52,-5.2 1.14,-1.5 2.57,-2.3 4.29,-2.41 l 24.37,-1.55 0.53,8.4 -20.54,1.31 c -0.37,0.02 -0.69,0.21 -0.95,0.55 -0.26,0.34 -0.38,0.73 -0.35,1.16 l 0.19,3.01 c 0.03,0.43 0.19,0.8 0.49,1.11 0.3,0.3 0.64,0.44 1.01,0.42 l 14.97,-0.95 c 1.75,-0.11 3.27,0.5 4.58,1.82 1.31,1.32 2.02,2.99 2.15,5 l 0.55,8.61 c 0.13,1.97 -0.38,3.71 -1.5,5.2 -1.12,1.49 -2.56,2.3 -4.31,2.41 z"
   style="fill-rule:nonzero"
   id="path98" />
    </g><g
       id="g109">
        <path
   d="m 113.987,379.627 -9.35,0.59 -0.81,-12.71 -15.45,-21.57 10.1,-0.64 9.47,13.22 7.77,-14.32 10.1,-0.64 -12.64,23.36 z"
   style="fill-rule:nonzero"
   id="path99" />
        <path
   d="m 161.217,376.617 -23.97,1.52 c -1.84,0.12 -3.47,-0.44 -4.87,-1.68 -1.41,-1.24 -2.17,-2.78 -2.29,-4.62 l -1.38,-21.71 c -0.12,-1.84 0.44,-3.47 1.68,-4.88 1.24,-1.41 2.78,-2.17 4.62,-2.29 l 23.97,-1.52 c 1.84,-0.12 3.47,0.44 4.87,1.68 1.41,1.24 2.17,2.78 2.29,4.62 l 1.38,21.71 c 0.12,1.84 -0.44,3.47 -1.68,4.88 -1.23,1.41 -2.77,2.18 -4.62,2.29 z m -4.62,-7.57 c 0.4,-0.03 0.74,-0.2 1.03,-0.52 0.28,-0.32 0.41,-0.68 0.38,-1.09 l -1.05,-16.48 c -0.03,-0.4 -0.2,-0.74 -0.52,-1.03 -0.32,-0.28 -0.68,-0.41 -1.08,-0.38 l -15.73,1 c -0.4,0.03 -0.74,0.2 -1.03,0.52 -0.28,0.32 -0.41,0.68 -0.38,1.08 l 1.05,16.48 c 0.03,0.4 0.2,0.75 0.52,1.03 0.32,0.28 0.68,0.41 1.08,0.38 z"
   style="fill-rule:nonzero"
   id="path100" />
        <path
   d="m 205.237,373.817 -23.97,1.52 c -1.84,0.12 -3.47,-0.44 -4.87,-1.68 -1.41,-1.24 -2.17,-2.78 -2.29,-4.62 l -1.81,-28.44 9.35,-0.59 1.64,25.83 c 0.03,0.4 0.2,0.74 0.52,1.03 0.32,0.28 0.68,0.41 1.08,0.38 l 15.73,-1 c 0.4,-0.03 0.74,-0.2 1.03,-0.52 0.28,-0.32 0.41,-0.68 0.39,-1.09 l -1.64,-25.83 9.35,-0.59 1.81,28.44 c 0.12,1.84 -0.44,3.47 -1.68,4.88 -1.25,1.4 -2.79,2.17 -4.64,2.28 z"
   style="fill-rule:nonzero"
   id="path101" />
        <path
   d="m 238.057,371.727 -9.4,0.6 -1.74,-27.34 -12.51,0.8 -0.5,-7.84 34.42,-2.19 0.5,7.84 -12.51,0.8 z"
   style="fill-rule:nonzero"
   id="path102" />
        <path
   d="m 291.977,368.307 -9.35,0.59 -0.87,-13.67 -18.34,1.17 0.87,13.67 -9.35,0.59 -2.24,-35.18 9.35,-0.59 0.87,13.67 18.34,-1.17 -0.87,-13.67 9.35,-0.59 z"
   style="fill-rule:nonzero"
   id="path103" />
        <path
   d="m 343.537,365.027 -26.58,1.69 -0.5,-7.84 22.46,-1.43 c 0.44,-0.03 0.79,-0.2 1.05,-0.52 0.27,-0.32 0.39,-0.68 0.36,-1.08 l -0.18,-2.81 c -0.03,-0.4 -0.19,-0.75 -0.49,-1.03 -0.3,-0.28 -0.67,-0.41 -1.11,-0.38 l -16.08,1.02 c -1.84,0.12 -3.47,-0.44 -4.87,-1.66 -1.41,-1.22 -2.17,-2.77 -2.29,-4.65 l -0.51,-8.04 c -0.12,-1.84 0.44,-3.47 1.68,-4.88 1.24,-1.41 2.78,-2.17 4.62,-2.29 l 26.18,-1.67 0.5,7.84 -22.06,1.4 c -0.4,0.02 -0.74,0.2 -1.03,0.52 -0.28,0.32 -0.41,0.68 -0.39,1.08 l 0.18,2.81 c 0.03,0.4 0.2,0.74 0.52,1.03 0.32,0.28 0.68,0.41 1.08,0.39 l 16.08,-1.02 c 1.88,-0.12 3.51,0.43 4.9,1.66 1.39,1.22 2.15,2.77 2.26,4.65 l 0.51,8.04 c 0.12,1.84 -0.44,3.47 -1.66,4.87 -1.22,1.4 -2.76,2.18 -4.63,2.3 z"
   style="fill-rule:nonzero"
   id="path104" />
        <path
   d="m 386.997,362.257 -23.97,1.52 c -1.84,0.12 -3.47,-0.44 -4.87,-1.68 -1.41,-1.24 -2.17,-2.78 -2.29,-4.62 l -1.38,-21.71 c -0.12,-1.84 0.44,-3.47 1.68,-4.88 1.24,-1.41 2.78,-2.17 4.62,-2.29 l 23.97,-1.52 c 1.84,-0.12 3.47,0.44 4.87,1.68 1.41,1.24 2.17,2.78 2.29,4.62 l 1.38,21.71 c 0.12,1.84 -0.44,3.47 -1.68,4.88 -1.23,1.41 -2.77,2.18 -4.62,2.29 z m -4.62,-7.57 c 0.4,-0.03 0.74,-0.2 1.03,-0.52 0.28,-0.32 0.41,-0.68 0.38,-1.09 l -1.05,-16.48 c -0.03,-0.4 -0.2,-0.74 -0.52,-1.03 -0.32,-0.28 -0.68,-0.41 -1.08,-0.38 l -15.73,1 c -0.4,0.03 -0.74,0.2 -1.03,0.52 -0.28,0.32 -0.41,0.68 -0.38,1.09 l 1.05,16.48 c 0.03,0.4 0.2,0.74 0.52,1.03 0.32,0.28 0.68,0.41 1.08,0.38 z"
   style="fill-rule:nonzero"
   id="path105" />
        <path
   d="m 431.627,359.417 -24.72,1.57 c -1.84,0.12 -3.47,-0.44 -4.88,-1.68 -1.41,-1.24 -2.17,-2.78 -2.29,-4.62 l -1.38,-21.71 c -0.12,-1.84 0.44,-3.47 1.68,-4.88 1.24,-1.41 2.78,-2.17 4.62,-2.29 l 24.72,-1.57 0.5,7.84 -20.6,1.31 c -0.4,0.03 -0.74,0.2 -1.03,0.52 -0.28,0.32 -0.41,0.68 -0.39,1.08 l 1.05,16.48 c 0.03,0.4 0.2,0.75 0.52,1.03 0.32,0.28 0.68,0.41 1.08,0.38 l 20.6,-1.31 z"
   style="fill-rule:nonzero"
   id="path106" />
        <path
   d="m 468.307,357.087 -24.72,1.57 c -1.84,0.12 -3.47,-0.44 -4.88,-1.68 -1.41,-1.24 -2.17,-2.78 -2.29,-4.62 l -1.38,-21.71 c -0.12,-1.84 0.44,-3.47 1.68,-4.88 1.24,-1.41 2.78,-2.17 4.62,-2.29 l 24.72,-1.57 0.5,7.84 -20.6,1.31 c -0.4,0.03 -0.74,0.2 -1.03,0.52 -0.28,0.32 -0.41,0.68 -0.39,1.08 l 1.05,16.48 c 0.03,0.4 0.2,0.74 0.52,1.03 0.32,0.28 0.68,0.41 1.08,0.38 l 20.6,-1.31 z"
   style="fill-rule:nonzero"
   id="path107" />
        <path
   d="m 504.987,354.757 -24.72,1.57 c -1.84,0.12 -3.47,-0.44 -4.88,-1.68 -1.41,-1.24 -2.17,-2.78 -2.29,-4.62 l -1.38,-21.71 c -0.12,-1.84 0.44,-3.47 1.68,-4.88 1.24,-1.41 2.78,-2.17 4.62,-2.29 l 24.72,-1.57 0.5,7.84 -20.6,1.31 c -0.4,0.03 -0.74,0.2 -1.03,0.52 -0.28,0.32 -0.41,0.68 -0.39,1.09 l 0.28,4.32 19.1,-1.22 0.5,7.84 -19.1,1.22 0.28,4.32 c 0.03,0.4 0.2,0.74 0.52,1.03 0.32,0.28 0.68,0.41 1.08,0.38 l 20.6,-1.31 z"
   style="fill-rule:nonzero"
   id="path108" />
        <path
   d="m 548.407,351.997 -11.26,0.72 -12.76,-11.75 -4.87,0.31 0.8,12.51 -9.35,0.59 -2.24,-35.18 29.2,-1.86 c 1.84,-0.12 3.47,0.44 4.87,1.68 1.41,1.24 2.17,2.78 2.29,4.62 l 0.58,9.15 c 0.12,1.88 -0.44,3.52 -1.68,4.93 -1.24,1.41 -2.78,2.17 -4.62,2.29 l -3.77,0.24 z m -13.66,-19.62 c 0.4,-0.03 0.75,-0.19 1.03,-0.49 0.28,-0.3 0.41,-0.67 0.38,-1.11 l -0.25,-3.92 c -0.03,-0.4 -0.2,-0.74 -0.52,-1.03 -0.32,-0.28 -0.68,-0.41 -1.08,-0.38 l -15.73,1 0.44,6.93 z"
   style="fill-rule:nonzero"
   id="path109" />
    </g><g
       id="g121">
        <path
   d="m 50.157,333.267 -23.02,1.46 c -1.72,0.11 -3.23,-0.51 -4.56,-1.84 -1.32,-1.34 -2.05,-3 -2.17,-4.97 l -1.48,-23.25 c -0.13,-1.97 0.38,-3.71 1.53,-5.2 1.14,-1.5 2.57,-2.3 4.28,-2.41 l 23.02,-1.46 0.53,8.4 -19.18,1.22 c -0.37,0.02 -0.69,0.21 -0.95,0.55 -0.26,0.34 -0.38,0.73 -0.35,1.16 l 1.12,17.65 c 0.03,0.43 0.19,0.8 0.49,1.1 0.3,0.31 0.64,0.45 1.01,0.42 l 19.18,-1.22 z"
   style="fill:url(#_Linear3);fill-rule:nonzero"
   id="path110" />
        <path
   d="m 83.617,331.137 -22.32,1.42 c -1.72,0.11 -3.23,-0.51 -4.56,-1.85 -1.32,-1.34 -2.05,-3 -2.17,-4.97 l -1.48,-23.25 c -0.13,-1.97 0.38,-3.71 1.53,-5.2 1.14,-1.5 2.57,-2.3 4.29,-2.41 l 22.32,-1.42 c 1.72,-0.11 3.23,0.51 4.56,1.85 1.32,1.34 2.05,3 2.17,4.97 l 1.48,23.25 c 0.13,1.97 -0.38,3.71 -1.52,5.21 -1.16,1.49 -2.59,2.29 -4.3,2.4 z m -4.38,-8.15 c 0.37,-0.02 0.69,-0.21 0.95,-0.55 0.26,-0.34 0.38,-0.73 0.35,-1.16 l -1.12,-17.65 c -0.03,-0.43 -0.19,-0.8 -0.49,-1.1 -0.3,-0.31 -0.64,-0.45 -1.01,-0.42 l -14.64,0.93 c -0.37,0.02 -0.69,0.21 -0.95,0.55 -0.26,0.34 -0.38,0.73 -0.35,1.16 l 1.12,17.65 c 0.03,0.43 0.19,0.8 0.49,1.1 0.3,0.31 0.64,0.45 1.01,0.42 z"
   style="fill:url(#_Linear4);fill-rule:nonzero"
   id="path111" />
        <path
   d="m 131.007,328.127 -10.48,0.67 -11.99,-12.69 -4.54,0.29 0.85,13.4 -8.7,0.55 -2.4,-37.68 27.18,-1.73 c 1.71,-0.11 3.23,0.51 4.56,1.85 1.32,1.34 2.05,3 2.17,4.97 l 0.62,9.8 c 0.13,2.01 -0.38,3.76 -1.52,5.26 -1.14,1.5 -2.57,2.3 -4.29,2.41 l -3.51,0.22 z m -12.9,-21.12 c 0.37,-0.02 0.69,-0.2 0.95,-0.52 0.26,-0.32 0.38,-0.72 0.35,-1.18 l -0.27,-4.2 c -0.03,-0.43 -0.19,-0.8 -0.49,-1.1 -0.3,-0.31 -0.64,-0.45 -1.01,-0.42 l -14.64,0.93 0.47,7.43 z"
   style="fill:url(#_Linear5);fill-rule:nonzero"
   id="path112" />
        <path
   d="m 172.037,325.517 -8.7,0.55 -3.38,-7.41 -15.81,1.01 -2.42,7.77 -8.7,0.55 11.87,-38.59 10.48,-0.67 z m -15.81,-15.1 -5.52,-12.13 -3.93,12.74 z"
   style="fill:url(#_Linear6);fill-rule:nonzero"
   id="path113" />
        <path
   d="m 202.957,323.547 -27.18,1.73 -2.4,-37.68 8.7,-0.55 1.86,29.28 18.48,-1.18 z"
   style="fill:url(#_Linear7);fill-rule:nonzero"
   id="path114" />
        <path
   d="m 248.437,320.657 -24.75,1.57 -0.53,-8.4 20.91,-1.33 c 0.4,-0.03 0.73,-0.21 0.98,-0.55 0.24,-0.34 0.35,-0.73 0.33,-1.16 l -0.19,-3.01 c -0.03,-0.43 -0.18,-0.8 -0.47,-1.11 -0.29,-0.31 -0.63,-0.45 -1.04,-0.42 l -14.97,0.95 c -1.72,0.11 -3.23,-0.5 -4.55,-1.82 -1.32,-1.32 -2.05,-2.98 -2.17,-5 l -0.55,-8.61 c -0.13,-1.97 0.38,-3.71 1.52,-5.2 1.14,-1.5 2.57,-2.3 4.29,-2.41 l 24.38,-1.55 0.53,8.4 -20.54,1.31 c -0.37,0.02 -0.69,0.21 -0.95,0.55 -0.26,0.34 -0.38,0.73 -0.35,1.16 l 0.19,3.01 c 0.03,0.43 0.19,0.8 0.49,1.1 0.3,0.31 0.64,0.45 1.01,0.42 l 14.97,-0.95 c 1.75,-0.11 3.27,0.5 4.58,1.82 1.31,1.32 2.02,2.99 2.15,5 l 0.55,8.61 c 0.13,1.97 -0.38,3.71 -1.5,5.2 -1.14,1.51 -2.58,2.31 -4.32,2.42 z"
   style="fill:url(#_Linear8);fill-rule:nonzero"
   id="path115" />
        <path
   d="m 269.297,319.327 -8.7,0.55 -2.4,-37.68 27.18,-1.73 c 1.72,-0.11 3.23,0.51 4.56,1.85 1.32,1.34 2.05,3 2.17,4.97 l 0.62,9.8 c 0.13,2.01 -0.38,3.76 -1.52,5.26 -1.14,1.5 -2.57,2.3 -4.29,2.41 l -18.48,1.18 z m 13.26,-22.78 c 0.37,-0.02 0.69,-0.2 0.95,-0.52 0.26,-0.32 0.38,-0.72 0.35,-1.18 l -0.27,-4.2 c -0.03,-0.43 -0.19,-0.8 -0.49,-1.1 -0.3,-0.31 -0.64,-0.45 -1.01,-0.42 l -14.64,0.93 0.47,7.43 z"
   style="fill:url(#_Linear9);fill-rule:nonzero"
   id="path116" />
        <path
   d="m 333.997,315.217 -10.48,0.67 -11.99,-12.69 -4.54,0.29 0.85,13.4 -8.7,0.55 -2.4,-37.68 27.18,-1.73 c 1.72,-0.11 3.23,0.51 4.56,1.85 1.32,1.34 2.05,3 2.17,4.97 l 0.62,9.8 c 0.13,2.01 -0.38,3.76 -1.52,5.26 -1.14,1.5 -2.57,2.3 -4.29,2.41 l -3.51,0.22 z m -12.89,-21.12 c 0.37,-0.02 0.69,-0.2 0.95,-0.52 0.26,-0.32 0.38,-0.72 0.35,-1.18 l -0.27,-4.2 c -0.03,-0.43 -0.19,-0.8 -0.49,-1.1 -0.3,-0.31 -0.64,-0.45 -1.01,-0.42 l -14.64,0.93 0.47,7.43 z"
   style="fill:url(#_Linear10);fill-rule:nonzero"
   id="path117" />
        <path
   d="m 347.567,314.357 -8.7,0.55 -2.4,-37.68 8.7,-0.55 z"
   style="fill:url(#_Linear11);fill-rule:nonzero"
   id="path118" />
        <path
   d="m 389.017,311.717 -8.7,0.55 -18.94,-22.31 1.49,23.41 -8.7,0.55 -2.4,-37.68 8.7,-0.55 18.94,22.31 -1.49,-23.41 8.7,-0.55 z"
   style="fill:url(#_Linear12);fill-rule:nonzero"
   id="path119" />
        <path
   d="m 423.877,309.497 -22.32,1.42 c -1.72,0.11 -3.23,-0.51 -4.56,-1.85 -1.32,-1.34 -2.05,-3 -2.17,-4.97 l -1.48,-23.25 c -0.13,-1.97 0.38,-3.71 1.53,-5.2 1.14,-1.5 2.57,-2.3 4.28,-2.41 l 27.18,-1.73 0.53,8.4 -23.35,1.48 c -0.37,0.02 -0.69,0.21 -0.95,0.55 -0.26,0.34 -0.38,0.73 -0.35,1.16 l 1.12,17.65 c 0.03,0.43 0.19,0.8 0.49,1.1 0.3,0.3 0.64,0.44 1.01,0.42 l 14.64,-0.93 c 0.37,-0.02 0.69,-0.21 0.95,-0.55 0.26,-0.34 0.38,-0.73 0.35,-1.16 l -0.29,-4.63 -9.78,0.62 -0.53,-8.4 18.48,-1.18 1.01,15.82 c 0.13,1.97 -0.38,3.71 -1.52,5.21 -1.13,1.52 -2.56,2.32 -4.27,2.43 z"
   style="fill:url(#_Linear13);fill-rule:nonzero"
   id="path120" />
        <path
   d="m 460.507,307.167 -24.75,1.57 -0.53,-8.4 20.91,-1.33 c 0.4,-0.03 0.73,-0.21 0.98,-0.55 0.24,-0.34 0.35,-0.73 0.33,-1.16 l -0.19,-3.01 c -0.03,-0.43 -0.18,-0.8 -0.47,-1.11 -0.29,-0.31 -0.63,-0.45 -1.04,-0.42 l -14.97,0.95 c -1.72,0.11 -3.23,-0.5 -4.55,-1.82 -1.32,-1.32 -2.05,-2.99 -2.17,-5 l -0.55,-8.61 c -0.13,-1.97 0.38,-3.71 1.52,-5.2 1.14,-1.5 2.57,-2.3 4.29,-2.41 l 24.37,-1.55 0.53,8.4 -20.54,1.31 c -0.37,0.02 -0.69,0.21 -0.95,0.55 -0.26,0.34 -0.38,0.73 -0.35,1.16 l 0.19,3.01 c 0.03,0.43 0.19,0.8 0.49,1.11 0.3,0.3 0.64,0.44 1.01,0.42 l 14.97,-0.95 c 1.75,-0.11 3.27,0.5 4.58,1.82 1.31,1.32 2.02,2.99 2.15,5 l 0.55,8.61 c 0.13,1.97 -0.38,3.71 -1.5,5.2 -1.12,1.49 -2.56,2.3 -4.31,2.41 z"
   style="fill:url(#_Linear14);fill-rule:nonzero"
   id="path121" />
    </g><g
       opacity="0.5"
       id="g133">
        <path
   d="m 29.117,305.207 19.18,-1.22 -0.53,-8.4 -23.02,1.46 c -1.72,0.11 -3.14,0.92 -4.29,2.41 -1.14,1.5 -1.65,3.24 -1.52,5.21 l 0.91,14.31 8.7,-0.6 -0.73,-11.47 c -0.03,-0.43 0.09,-0.81 0.35,-1.15 0.26,-0.35 0.58,-0.53 0.95,-0.55 z"
   style="fill:url(#_Linear15);fill-rule:nonzero"
   id="path122" />
        <path
   d="m 87.947,300.277 c -0.13,-1.97 -0.85,-3.63 -2.17,-4.97 -1.33,-1.34 -2.85,-1.96 -4.56,-1.85 l -22.32,1.42 c -1.71,0.11 -3.14,0.92 -4.28,2.41 -1.15,1.5 -1.65,3.23 -1.53,5.2 l 0.9,14.15 8.7,-0.59 -0.72,-11.31 c -0.02,-0.43 0.09,-0.82 0.35,-1.16 0.26,-0.34 0.58,-0.52 0.95,-0.54 l 14.65,-0.94 c 0.37,-0.02 0.71,0.12 1.01,0.43 0.3,0.3 0.47,0.67 0.49,1.1 l 0.72,11.22 8.7,-0.59 z"
   style="fill:url(#_Linear16);fill-rule:nonzero"
   id="path123" />
        <path
   d="m 128.287,307.547 -0.62,-9.8 c -0.13,-1.97 -0.85,-3.63 -2.18,-4.97 -1.32,-1.34 -2.84,-1.95 -4.55,-1.84 l -27.18,1.73 1.34,21.16 32.41,-2.22 c 0.62,-1.21 0.88,-2.56 0.78,-4.06 z m -9.23,-1.06 c -0.26,0.32 -0.58,0.49 -0.95,0.52 l -14.65,0.93 -0.47,-7.43 14.65,-0.93 c 0.37,-0.03 0.71,0.12 1.01,0.42 0.3,0.3 0.46,0.67 0.49,1.1 l 0.27,4.2 c 0.03,0.47 -0.09,0.86 -0.35,1.19 z"
   style="fill:url(#_Linear17);fill-rule:nonzero"
   id="path124" />
        <path
   d="m 155.367,288.747 -10.48,0.66 -6.6,21.46 8.72,-0.59 3.71,-12 5.17,11.39 8.69,-0.6 z"
   style="fill:url(#_Linear18);fill-rule:nonzero"
   id="path125" />
        <path
   d="m 182.087,287.047 -8.71,0.55 1.32,20.78 8.71,-0.59 z"
   style="fill:url(#_Linear19);fill-rule:nonzero"
   id="path126" />
        <path
   d="m 251.547,299.437 c -1.31,-1.32 -2.83,-1.93 -4.58,-1.82 l -14.97,0.95 c -0.37,0.03 -0.71,-0.11 -1.01,-0.42 -0.31,-0.3 -0.47,-0.67 -0.5,-1.1 l -0.19,-3.01 c -0.03,-0.43 0.09,-0.82 0.35,-1.16 0.26,-0.34 0.58,-0.53 0.95,-0.55 l 20.54,-1.31 -0.53,-8.39 -24.38,1.55 c -1.71,0.11 -3.14,0.91 -4.28,2.41 -1.15,1.49 -1.65,3.23 -1.53,5.2 l 0.55,8.61 c 0.12,1.82 0.72,3.37 1.82,4.62 l 29.7,-2.03 c -0.32,-1.38 -0.97,-2.56 -1.94,-3.55 z"
   style="fill:url(#_Linear20);fill-rule:nonzero"
   id="path127" />
        <path
   d="m 292.737,297.087 -0.63,-9.8 c -0.12,-1.97 -0.85,-3.63 -2.17,-4.97 -1.32,-1.33 -2.84,-1.95 -4.55,-1.84 l -27.19,1.73 1.3,20.37 32.81,-2.25 c 0.36,-0.99 0.5,-2.07 0.43,-3.24 z m -9.23,-1.06 c -0.26,0.32 -0.58,0.49 -0.95,0.52 l -14.65,0.93 -0.47,-7.43 14.64,-0.93 c 0.38,-0.02 0.72,0.12 1.02,0.42 0.3,0.31 0.46,0.68 0.49,1.11 l 0.27,4.19 c 0.03,0.47 -0.09,0.87 -0.35,1.19 z"
   style="fill:url(#_Linear21);fill-rule:nonzero"
   id="path128" />
        <path
   d="m 331.287,294.637 -0.63,-9.8 c -0.12,-1.97 -0.85,-3.63 -2.17,-4.97 -1.32,-1.34 -2.84,-1.95 -4.55,-1.84 l -27.19,1.73 1.29,20.18 32.9,-2.25 c 0.3,-0.94 0.42,-1.96 0.35,-3.05 z m -9.23,-1.06 c -0.26,0.32 -0.58,0.49 -0.95,0.52 l -14.65,0.93 -0.47,-7.43 14.64,-0.93 c 0.38,-0.03 0.72,0.12 1.02,0.42 0.3,0.3 0.46,0.67 0.49,1.1 l 0.27,4.2 c 0.03,0.47 -0.09,0.87 -0.35,1.19 z"
   style="fill:url(#_Linear22);fill-rule:nonzero"
   id="path129" />
        <path
   d="m 345.177,276.677 -8.71,0.55 1.27,20 8.71,-0.6 z"
   style="fill:url(#_Linear23);fill-rule:nonzero"
   id="path130" />
        <path
   d="m 386.627,274.037 -8.71,0.55 1.26,19.8 8.7,-0.6 z m -34.86,2.22 1.27,19.92 8.7,-0.6 -0.36,-5.61 4.53,5.33 10.58,-0.73 -16.02,-18.87 z"
   style="fill:url(#_Linear24);fill-rule:nonzero"
   id="path131" />
        <path
   d="m 428.677,286.057 -18.48,1.18 0.32,5.01 18.47,-1.27 z m -25.15,-4.67 23.35,-1.48 -0.53,-8.4 -27.19,1.73 c -1.71,0.11 -3.14,0.92 -4.28,2.41 -1.14,1.5 -1.65,3.23 -1.53,5.2 l 0.8,12.52 8.7,-0.6 -0.62,-9.67 c -0.02,-0.43 0.09,-0.82 0.35,-1.16 0.26,-0.34 0.58,-0.52 0.95,-0.55 z"
   style="fill:url(#_Linear25);fill-rule:nonzero"
   id="path132" />
        <path
   d="m 463.617,285.947 c -1.3,-1.32 -2.83,-1.93 -4.58,-1.82 l -14.97,0.96 c -0.37,0.02 -0.71,-0.12 -1.01,-0.42 -0.3,-0.31 -0.47,-0.68 -0.49,-1.11 l -0.2,-3.01 c -0.02,-0.43 0.09,-0.82 0.35,-1.16 0.26,-0.34 0.58,-0.52 0.96,-0.55 l 20.53,-1.3 -0.53,-8.4 -24.37,1.55 c -1.72,0.11 -3.15,0.91 -4.29,2.41 -1.14,1.49 -1.65,3.23 -1.53,5.2 l 0.55,8.61 c 0.09,1.38 0.46,2.6 1.12,3.65 l 30.1,-2.06 c -0.36,-0.96 -0.91,-1.81 -1.64,-2.55 z"
   style="fill:url(#_Linear26);fill-rule:nonzero"
   id="path133" />
    </g><g
       id="g144">
        <path
   d="m 111.627,378.757 -9.35,0.59 -0.81,-12.71 -15.45,-21.57 10.1,-0.64 9.47,13.22 7.77,-14.32 10.1,-0.64 -12.64,23.36 z"
   style="fill:#ffffff;fill-rule:nonzero"
   id="path134" />
        <path
   d="m 158.867,375.757 -23.97,1.52 c -1.84,0.12 -3.47,-0.44 -4.87,-1.68 -1.41,-1.24 -2.17,-2.78 -2.29,-4.62 l -1.38,-21.71 c -0.12,-1.84 0.44,-3.47 1.68,-4.88 1.24,-1.41 2.78,-2.17 4.62,-2.29 l 23.97,-1.52 c 1.84,-0.12 3.47,0.44 4.87,1.68 1.41,1.24 2.17,2.78 2.29,4.62 l 1.38,21.71 c 0.12,1.84 -0.44,3.47 -1.68,4.88 -1.24,1.41 -2.78,2.17 -4.62,2.29 z m -4.62,-7.58 c 0.4,-0.03 0.74,-0.2 1.03,-0.52 0.28,-0.32 0.41,-0.68 0.38,-1.09 l -1.05,-16.48 c -0.03,-0.4 -0.2,-0.74 -0.52,-1.03 -0.32,-0.28 -0.68,-0.41 -1.08,-0.38 l -15.73,1 c -0.4,0.03 -0.74,0.2 -1.03,0.52 -0.28,0.32 -0.41,0.68 -0.38,1.08 l 1.05,16.48 c 0.03,0.4 0.2,0.75 0.52,1.03 0.32,0.28 0.68,0.41 1.08,0.38 z"
   style="fill:#ffffff;fill-rule:nonzero"
   id="path135" />
        <path
   d="m 202.887,372.957 -23.97,1.52 c -1.84,0.12 -3.47,-0.44 -4.87,-1.68 -1.41,-1.24 -2.17,-2.78 -2.29,-4.62 l -1.81,-28.44 9.35,-0.59 1.64,25.83 c 0.03,0.4 0.2,0.74 0.52,1.03 0.32,0.28 0.68,0.41 1.08,0.38 l 15.73,-1 c 0.4,-0.03 0.74,-0.2 1.03,-0.52 0.28,-0.32 0.41,-0.68 0.39,-1.09 l -1.64,-25.83 9.35,-0.59 1.81,28.44 c 0.12,1.84 -0.44,3.47 -1.68,4.88 -1.26,1.4 -2.8,2.16 -4.64,2.28 z"
   style="fill:#ffffff;fill-rule:nonzero"
   id="path136" />
        <path
   d="m 235.707,370.867 -9.4,0.6 -1.74,-27.34 -12.51,0.8 -0.5,-7.84 34.42,-2.19 0.5,7.84 -12.51,0.8 z"
   style="fill:#ffffff;fill-rule:nonzero"
   id="path137" />
        <path
   d="m 289.627,367.437 -9.35,0.59 -0.87,-13.67 -18.34,1.17 0.87,13.67 -9.35,0.59 -2.24,-35.18 9.35,-0.59 0.87,13.67 18.34,-1.17 -0.87,-13.67 9.35,-0.59 z"
   style="fill:#ffffff;fill-rule:nonzero"
   id="path138" />
        <path
   d="m 341.177,364.157 -26.58,1.69 -0.5,-7.84 22.46,-1.43 c 0.44,-0.03 0.79,-0.2 1.05,-0.52 0.27,-0.32 0.39,-0.68 0.36,-1.08 l -0.18,-2.81 c -0.03,-0.4 -0.19,-0.75 -0.49,-1.03 -0.3,-0.28 -0.67,-0.41 -1.11,-0.38 l -16.08,1.02 c -1.84,0.12 -3.47,-0.44 -4.87,-1.66 -1.41,-1.22 -2.17,-2.77 -2.29,-4.65 l -0.51,-8.04 c -0.12,-1.84 0.44,-3.47 1.68,-4.88 1.24,-1.41 2.78,-2.17 4.62,-2.29 l 26.18,-1.67 0.5,7.84 -22.06,1.4 c -0.4,0.02 -0.74,0.2 -1.03,0.52 -0.28,0.32 -0.41,0.68 -0.39,1.08 l 0.18,2.81 c 0.03,0.4 0.2,0.74 0.52,1.03 0.32,0.28 0.68,0.41 1.08,0.39 l 16.08,-1.02 c 1.88,-0.12 3.51,0.43 4.9,1.66 1.39,1.22 2.15,2.77 2.26,4.65 l 0.51,8.04 c 0.12,1.84 -0.44,3.47 -1.66,4.87 -1.22,1.4 -2.75,2.18 -4.63,2.3 z"
   style="fill:#ffffff;fill-rule:nonzero"
   id="path139" />
        <path
   d="m 384.647,361.397 -23.97,1.52 c -1.84,0.12 -3.47,-0.44 -4.87,-1.68 -1.41,-1.24 -2.17,-2.78 -2.29,-4.62 l -1.38,-21.71 c -0.12,-1.84 0.44,-3.47 1.68,-4.88 1.24,-1.41 2.78,-2.17 4.62,-2.29 l 23.97,-1.52 c 1.84,-0.12 3.47,0.44 4.87,1.68 1.41,1.24 2.17,2.78 2.29,4.62 l 1.38,21.71 c 0.12,1.84 -0.44,3.47 -1.68,4.88 -1.24,1.41 -2.78,2.17 -4.62,2.29 z m -4.62,-7.58 c 0.4,-0.03 0.74,-0.2 1.03,-0.52 0.28,-0.32 0.41,-0.68 0.38,-1.09 l -1.05,-16.48 c -0.03,-0.4 -0.2,-0.74 -0.52,-1.03 -0.32,-0.28 -0.68,-0.41 -1.08,-0.38 l -15.73,1 c -0.4,0.03 -0.74,0.2 -1.03,0.52 -0.28,0.32 -0.41,0.68 -0.38,1.09 l 1.05,16.48 c 0.03,0.4 0.2,0.74 0.52,1.03 0.32,0.28 0.68,0.41 1.08,0.38 z"
   style="fill:#ffffff;fill-rule:nonzero"
   id="path140" />
        <path
   d="m 429.267,358.557 -24.72,1.57 c -1.84,0.12 -3.47,-0.44 -4.88,-1.68 -1.41,-1.24 -2.17,-2.78 -2.29,-4.62 l -1.38,-21.71 c -0.12,-1.84 0.44,-3.47 1.68,-4.88 1.24,-1.41 2.78,-2.17 4.62,-2.29 l 24.72,-1.57 0.5,7.84 -20.6,1.31 c -0.4,0.03 -0.74,0.2 -1.03,0.52 -0.28,0.32 -0.41,0.68 -0.39,1.08 l 1.05,16.48 c 0.03,0.4 0.2,0.75 0.52,1.03 0.32,0.28 0.68,0.41 1.08,0.38 l 20.6,-1.31 z"
   style="fill:#ffffff;fill-rule:nonzero"
   id="path141" />
        <path
   d="m 465.957,356.217 -24.72,1.57 c -1.84,0.12 -3.47,-0.44 -4.88,-1.68 -1.41,-1.24 -2.17,-2.78 -2.29,-4.62 l -1.38,-21.71 c -0.12,-1.84 0.44,-3.47 1.68,-4.88 1.24,-1.41 2.78,-2.17 4.62,-2.29 l 24.72,-1.57 0.5,7.84 -20.6,1.31 c -0.4,0.03 -0.74,0.2 -1.03,0.52 -0.28,0.32 -0.41,0.68 -0.39,1.08 l 1.05,16.48 c 0.03,0.4 0.2,0.74 0.52,1.03 0.32,0.28 0.68,0.41 1.08,0.38 l 20.6,-1.31 z"
   style="fill:#ffffff;fill-rule:nonzero"
   id="path142" />
        <path
   d="m 502.637,353.887 -24.72,1.57 c -1.84,0.12 -3.47,-0.44 -4.88,-1.68 -1.41,-1.24 -2.17,-2.78 -2.29,-4.62 l -1.38,-21.71 c -0.12,-1.84 0.44,-3.47 1.68,-4.88 1.24,-1.41 2.78,-2.17 4.62,-2.29 l 24.72,-1.57 0.5,7.84 -20.6,1.31 c -0.4,0.03 -0.74,0.2 -1.03,0.52 -0.28,0.32 -0.41,0.68 -0.39,1.09 l 0.28,4.32 19.1,-1.22 0.5,7.84 -19.1,1.22 0.28,4.32 c 0.03,0.4 0.2,0.74 0.52,1.03 0.32,0.28 0.68,0.41 1.08,0.38 l 20.6,-1.31 z"
   style="fill:#ffffff;fill-rule:nonzero"
   id="path143" />
        <path
   d="m 546.057,351.127 -11.26,0.72 -12.76,-11.75 -4.87,0.31 0.8,12.51 -9.35,0.59 -2.24,-35.18 29.2,-1.86 c 1.84,-0.12 3.47,0.44 4.87,1.68 1.41,1.24 2.17,2.78 2.29,4.62 l 0.58,9.15 c 0.12,1.88 -0.44,3.52 -1.68,4.93 -1.24,1.41 -2.78,2.17 -4.62,2.29 l -3.77,0.24 z m -13.66,-19.62 c 0.4,-0.03 0.75,-0.19 1.03,-0.49 0.28,-0.3 0.41,-0.67 0.38,-1.11 l -0.25,-3.92 c -0.03,-0.4 -0.2,-0.74 -0.52,-1.03 -0.32,-0.28 -0.68,-0.41 -1.08,-0.38 l -15.73,1 0.44,6.93 z"
   style="fill:#ffffff;fill-rule:nonzero"
   id="path144" />
    </g><g
       id="g155">
        <path
   d="m 112.667,362.637 -13.48,0.8 2.29,3.2 0.81,12.71 9.34,-0.59 -0.8,-12.71 z"
   style="fill:#cecece;fill-rule:nonzero"
   id="path145" />
        <path
   d="m 165.177,368.587 -0.57,-9.03 -9.36,0.56 0.41,6.45 c 0.03,0.41 -0.1,0.77 -0.38,1.09 -0.28,0.32 -0.63,0.49 -1.03,0.52 l -15.73,1 c -0.4,0.02 -0.76,-0.1 -1.08,-0.39 -0.32,-0.28 -0.5,-0.62 -0.52,-1.02 l -0.42,-6.54 -9.34,0.55 0.58,9.19 c 0.12,1.85 0.88,3.39 2.29,4.63 1.4,1.24 3.03,1.8 4.87,1.68 l 23.97,-1.52 c 1.84,-0.12 3.38,-0.88 4.62,-2.29 1.24,-1.41 1.8,-3.03 1.69,-4.88 z"
   style="fill:#cecece;fill-rule:nonzero"
   id="path146" />
        <path
   d="m 209.197,365.787 -0.56,-8.84 -9.36,0.55 0.4,6.27 c 0.03,0.41 -0.1,0.77 -0.38,1.09 -0.28,0.32 -0.63,0.49 -1.03,0.52 l -15.73,1 c -0.4,0.02 -0.76,-0.1 -1.08,-0.39 -0.32,-0.28 -0.5,-0.62 -0.52,-1.02 l -0.4,-6.35 -9.35,0.55 0.57,9 c 0.12,1.85 0.88,3.39 2.29,4.63 1.4,1.24 3.03,1.8 4.87,1.68 l 23.97,-1.52 c 1.84,-0.12 3.38,-0.88 4.62,-2.29 1.24,-1.41 1.8,-3.03 1.69,-4.88 z"
   style="fill:#cecece;fill-rule:nonzero"
   id="path147" />
        <path
   d="m 234.727,355.397 -9.41,0.56 0.99,15.51 9.4,-0.6 z"
   style="fill:#cecece;fill-rule:nonzero"
   id="path148" />
        <path
   d="m 288.657,352.197 -37.05,2.2 0.98,15.4 9.35,-0.6 -0.87,-13.67 18.34,-1.16 0.87,13.66 9.35,-0.59 z"
   style="fill:#cecece;fill-rule:nonzero"
   id="path149" />
        <path
   d="m 347.487,356.997 -0.51,-8.04 c 0,-0.07 -0.01,-0.15 -0.02,-0.22 l -31.12,1.84 c 1.26,0.9 2.69,1.3 4.27,1.2 l 16.08,-1.03 c 0.44,-0.02 0.81,0.1 1.11,0.39 0.31,0.28 0.47,0.62 0.5,1.03 l 0.17,2.81 c 0.03,0.4 -0.09,0.76 -0.35,1.08 -0.27,0.32 -0.62,0.5 -1.06,0.52 l -22.46,1.43 0.5,7.84 26.58,-1.69 c 1.88,-0.12 3.43,-0.88 4.65,-2.29 1.22,-1.4 1.78,-3.03 1.66,-4.87 z"
   style="fill:#cecece;fill-rule:nonzero"
   id="path150" />
        <path
   d="m 390.957,354.227 -0.51,-8.07 -9.36,0.55 0.35,5.5 c 0.03,0.41 -0.1,0.77 -0.38,1.09 -0.28,0.32 -0.63,0.49 -1.03,0.52 l -15.73,1 c -0.4,0.02 -0.76,-0.1 -1.08,-0.39 -0.32,-0.28 -0.49,-0.62 -0.52,-1.02 l -0.36,-5.59 -9.34,0.56 0.52,8.23 c 0.12,1.85 0.88,3.39 2.29,4.63 1.4,1.24 3.03,1.8 4.87,1.68 l 23.97,-1.52 c 1.84,-0.12 3.38,-0.88 4.62,-2.29 1.24,-1.41 1.8,-3.03 1.69,-4.88 z"
   style="fill:#cecece;fill-rule:nonzero"
   id="path151" />
        <path
   d="m 428.777,350.717 -20.61,1.31 c -0.4,0.02 -0.76,-0.1 -1.08,-0.39 -0.32,-0.28 -0.5,-0.62 -0.52,-1.02 l -0.34,-5.4 -9.35,0.55 0.51,8.05 c 0.12,1.85 0.88,3.39 2.29,4.63 1.4,1.24 3.03,1.8 4.87,1.68 l 24.72,-1.57 z"
   style="fill:#cecece;fill-rule:nonzero"
   id="path152" />
        <path
   d="m 465.457,348.377 -20.6,1.32 c -0.41,0.02 -0.77,-0.11 -1.09,-0.39 -0.32,-0.28 -0.49,-0.62 -0.52,-1.03 l -0.33,-5.24 -9.35,0.56 0.5,7.89 c 0.12,1.84 0.88,3.39 2.29,4.62 1.41,1.24 3.03,1.8 4.87,1.69 l 24.73,-1.58 z"
   style="fill:#cecece;fill-rule:nonzero"
   id="path153" />
        <path
   d="m 502.137,346.047 -20.6,1.31 c -0.4,0.03 -0.76,-0.1 -1.08,-0.38 -0.33,-0.28 -0.5,-0.63 -0.52,-1.03 l -0.28,-4.32 19.1,-1.21 -0.04,-0.69 -28.46,1.69 0.5,7.74 c 0.11,1.84 0.87,3.38 2.28,4.62 1.41,1.24 3.03,1.8 4.88,1.68 l 24.72,-1.57 z"
   style="fill:#cecece;fill-rule:nonzero"
   id="path154" />
        <path
   d="m 533.247,339.377 3.77,-0.24 c 1.68,-0.1 3.12,-0.75 4.29,-1.94 l -33.6,2 0.91,14.31 9.35,-0.59 -0.8,-12.52 4.88,-0.3 12.75,11.75 11.26,-0.72 z"
   style="fill:#cecece;fill-rule:nonzero"
   id="path155" />
    </g><path
       d="m 155.887,309.667 0.34,0.75 -9.45,0.6 0.23,-0.74 z"
       style="fill:url(#_Linear41);fill-rule:nonzero"
       id="path170" /><path
       d="m 379.407,298.007 -2.92,-3.44 2.69,-0.18 z"
       style="fill:url(#_Linear42);fill-rule:nonzero"
       id="path171" /></g></g>
    </g>
    <defs
   id="defs290">
    <radialGradient
   id="_Radial1"
   cx="0"
   cy="0"
   r="1"
   gradientUnits="userSpaceOnUse"
   gradientTransform="matrix(131.254,0,0,131.254,266.668,330.777)">
        <stop
   offset="0"
   style="stop-color:#0684c0;stop-opacity:1"
   id="stop171" />
        <stop
   offset="0.2"
   style="stop-color:#087fbd;stop-opacity:1"
   id="stop172" />
        <stop
   offset="0.43"
   style="stop-color:#0f72b6;stop-opacity:1"
   id="stop173" />
        <stop
   offset="0.68"
   style="stop-color:#1a5ba9;stop-opacity:1"
   id="stop174" />
        <stop
   offset="0.93"
   style="stop-color:#293b98;stop-opacity:1"
   id="stop175" />
        <stop
   offset="1"
   style="stop-color:#2e3192;stop-opacity:1"
   id="stop176" />
    </radialGradient>
    <linearGradient
   id="_Linear2"
   x1="0"
   y1="0"
   x2="1"
   y2="0"
   gradientUnits="userSpaceOnUse"
   gradientTransform="matrix(48.4895,-31.2257,31.2257,48.4895,327.563,328.501)">
        <stop
   offset="0"
   style="stop-color:#9e9e9e;stop-opacity:1"
   id="stop177" />
        <stop
   offset="0.29"
   style="stop-color:#9e9e9e;stop-opacity:1"
   id="stop178" />
        <stop
   offset="0.38"
   style="stop-color:#aaa;stop-opacity:1"
   id="stop179" />
        <stop
   offset="0.56"
   style="stop-color:#cacaca;stop-opacity:1"
   id="stop180" />
        <stop
   offset="0.69"
   style="stop-color:#e6e6e6;stop-opacity:1"
   id="stop181" />
        <stop
   offset="0.74"
   style="stop-color:#ececec;stop-opacity:1"
   id="stop182" />
        <stop
   offset="0.87"
   style="stop-color:#f9f9f9;stop-opacity:1"
   id="stop183" />
        <stop
   offset="1"
   style="stop-color:#fdfdfd;stop-opacity:1"
   id="stop184" />
    </linearGradient>
    <linearGradient
   id="_Linear3"
   x1="0"
   y1="0"
   x2="1"
   y2="0"
   gradientUnits="userSpaceOnUse"
   gradientTransform="matrix(4.2926,45.8975,-45.8975,4.2926,33.4484,304.914)">
        <stop
   offset="0"
   style="stop-color:#ea8d04;stop-opacity:1"
   id="stop185" />
        <stop
   offset="0.37"
   style="stop-color:#ff6400;stop-opacity:1"
   id="stop186" />
        <stop
   offset="1"
   style="stop-color:#ff0001;stop-opacity:1"
   id="stop187" />
    </linearGradient>
    <linearGradient
   id="_Linear4"
   x1="0"
   y1="0"
   x2="1"
   y2="0"
   gradientUnits="userSpaceOnUse"
   gradientTransform="matrix(4.2926,45.8975,-45.8975,4.2926,70.1773,301.479)">
        <stop
   offset="0"
   style="stop-color:#ea8d04;stop-opacity:1"
   id="stop188" />
        <stop
   offset="0.37"
   style="stop-color:#ff6400;stop-opacity:1"
   id="stop189" />
        <stop
   offset="1"
   style="stop-color:#ff0001;stop-opacity:1"
   id="stop190" />
    </linearGradient>
    <linearGradient
   id="_Linear5"
   x1="0"
   y1="0"
   x2="1"
   y2="0"
   gradientUnits="userSpaceOnUse"
   gradientTransform="matrix(4.2926,45.8974,-45.8974,4.2926,110.627,297.695)">
        <stop
   offset="0"
   style="stop-color:#ea8d04;stop-opacity:1"
   id="stop191" />
        <stop
   offset="0.37"
   style="stop-color:#ff6400;stop-opacity:1"
   id="stop192" />
        <stop
   offset="1"
   style="stop-color:#ff0001;stop-opacity:1"
   id="stop193" />
    </linearGradient>
    <linearGradient
   id="_Linear6"
   x1="0"
   y1="0"
   x2="1"
   y2="0"
   gradientUnits="userSpaceOnUse"
   gradientTransform="matrix(4.2925,45.8975,-45.8975,4.2925,149.467,294.063)">
        <stop
   offset="0"
   style="stop-color:#ea8d04;stop-opacity:1"
   id="stop194" />
        <stop
   offset="0.37"
   style="stop-color:#ff6400;stop-opacity:1"
   id="stop195" />
        <stop
   offset="1"
   style="stop-color:#ff0001;stop-opacity:1"
   id="stop196" />
    </linearGradient>
    <linearGradient
   id="_Linear7"
   x1="0"
   y1="0"
   x2="1"
   y2="0"
   gradientUnits="userSpaceOnUse"
   gradientTransform="matrix(4.2926,45.8975,-45.8975,4.2926,186.332,290.615)">
        <stop
   offset="0"
   style="stop-color:#ea8d04;stop-opacity:1"
   id="stop197" />
        <stop
   offset="0.37"
   style="stop-color:#ff6400;stop-opacity:1"
   id="stop198" />
        <stop
   offset="1"
   style="stop-color:#ff0001;stop-opacity:1"
   id="stop199" />
    </linearGradient>
    <linearGradient
   id="_Linear8"
   x1="0"
   y1="0"
   x2="1"
   y2="0"
   gradientUnits="userSpaceOnUse"
   gradientTransform="matrix(4.2926,45.8975,-45.8975,4.2926,236.132,285.958)">
        <stop
   offset="0"
   style="stop-color:#ea8d04;stop-opacity:1"
   id="stop200" />
        <stop
   offset="0.37"
   style="stop-color:#ff6400;stop-opacity:1"
   id="stop201" />
        <stop
   offset="1"
   style="stop-color:#ff0001;stop-opacity:1"
   id="stop202" />
    </linearGradient>
    <linearGradient
   id="_Linear9"
   x1="0"
   y1="0"
   x2="1"
   y2="0"
   gradientUnits="userSpaceOnUse"
   gradientTransform="matrix(4.2925,45.8975,-45.8975,4.2925,274.373,282.381)">
        <stop
   offset="0"
   style="stop-color:#ea8d04;stop-opacity:1"
   id="stop203" />
        <stop
   offset="0.37"
   style="stop-color:#ff6400;stop-opacity:1"
   id="stop204" />
        <stop
   offset="1"
   style="stop-color:#ff0001;stop-opacity:1"
   id="stop205" />
    </linearGradient>
    <linearGradient
   id="_Linear10"
   x1="0"
   y1="0"
   x2="1"
   y2="0"
   gradientUnits="userSpaceOnUse"
   gradientTransform="matrix(4.2926,45.8975,-45.8975,4.2926,313.061,278.763)">
        <stop
   offset="0"
   style="stop-color:#ea8d04;stop-opacity:1"
   id="stop206" />
        <stop
   offset="0.37"
   style="stop-color:#ff6400;stop-opacity:1"
   id="stop207" />
        <stop
   offset="1"
   style="stop-color:#ff0001;stop-opacity:1"
   id="stop208" />
    </linearGradient>
    <linearGradient
   id="_Linear11"
   x1="0"
   y1="0"
   x2="1"
   y2="0"
   gradientUnits="userSpaceOnUse"
   gradientTransform="matrix(4.2926,45.8975,-45.8975,4.2926,340.19,276.225)">
        <stop
   offset="0"
   style="stop-color:#ea8d04;stop-opacity:1"
   id="stop209" />
        <stop
   offset="0.37"
   style="stop-color:#ff6400;stop-opacity:1"
   id="stop210" />
        <stop
   offset="1"
   style="stop-color:#ff0001;stop-opacity:1"
   id="stop211" />
    </linearGradient>
    <linearGradient
   id="_Linear12"
   x1="0"
   y1="0"
   x2="1"
   y2="0"
   gradientUnits="userSpaceOnUse"
   gradientTransform="matrix(4.2926,45.8976,-45.8976,4.2926,368.486,273.579)">
        <stop
   offset="0"
   style="stop-color:#ea8d04;stop-opacity:1"
   id="stop212" />
        <stop
   offset="0.37"
   style="stop-color:#ff6400;stop-opacity:1"
   id="stop213" />
        <stop
   offset="1"
   style="stop-color:#ff0001;stop-opacity:1"
   id="stop214" />
    </linearGradient>
    <linearGradient
   id="_Linear13"
   x1="0"
   y1="0"
   x2="1"
   y2="0"
   gradientUnits="userSpaceOnUse"
   gradientTransform="matrix(4.2926,45.8975,-45.8975,4.2926,409.383,269.754)">
        <stop
   offset="0"
   style="stop-color:#ea8d04;stop-opacity:1"
   id="stop215" />
        <stop
   offset="0.37"
   style="stop-color:#ff6400;stop-opacity:1"
   id="stop216" />
        <stop
   offset="1"
   style="stop-color:#ff0001;stop-opacity:1"
   id="stop217" />
    </linearGradient>
    <linearGradient
   id="_Linear14"
   x1="0"
   y1="0"
   x2="1"
   y2="0"
   gradientUnits="userSpaceOnUse"
   gradientTransform="matrix(4.2925,45.8975,-45.8975,4.2925,447.617,266.178)">
        <stop
   offset="0"
   style="stop-color:#ea8d04;stop-opacity:1"
   id="stop218" />
        <stop
   offset="0.37"
   style="stop-color:#ff6400;stop-opacity:1"
   id="stop219" />
        <stop
   offset="1"
   style="stop-color:#ff0001;stop-opacity:1"
   id="stop220" />
    </linearGradient>
    <linearGradient
   id="_Linear15"
   x1="0"
   y1="0"
   x2="1"
   y2="0"
   gradientUnits="userSpaceOnUse"
   gradientTransform="matrix(-1.0435,-25.0434,25.0434,-1.0435,34.2198,318.819)">
        <stop
   offset="0"
   style="stop-color:#fff;stop-opacity:1"
   id="stop221" />
        <stop
   offset="1"
   style="stop-color:#231f20;stop-opacity:1"
   id="stop222" />
    </linearGradient>
    <linearGradient
   id="_Linear16"
   x1="0"
   y1="0"
   x2="1"
   y2="0"
   gradientUnits="userSpaceOnUse"
   gradientTransform="matrix(-1.0434,-25.0435,25.0435,-1.0434,71.3322,317.273)">
        <stop
   offset="0"
   style="stop-color:#fff;stop-opacity:1"
   id="stop223" />
        <stop
   offset="1"
   style="stop-color:#231f20;stop-opacity:1"
   id="stop224" />
    </linearGradient>
    <linearGradient
   id="_Linear17"
   x1="0"
   y1="0"
   x2="1"
   y2="0"
   gradientUnits="userSpaceOnUse"
   gradientTransform="matrix(-1.0435,-25.0435,25.0435,-1.0435,111.669,315.592)">
        <stop
   offset="0"
   style="stop-color:#fff;stop-opacity:1"
   id="stop225" />
        <stop
   offset="1"
   style="stop-color:#231f20;stop-opacity:1"
   id="stop226" />
    </linearGradient>
    <linearGradient
   id="_Linear18"
   x1="0"
   y1="0"
   x2="1"
   y2="0"
   gradientUnits="userSpaceOnUse"
   gradientTransform="matrix(-1.0434,-25.0435,25.0435,-1.0434,151.597,313.928)">
        <stop
   offset="0"
   style="stop-color:#fff;stop-opacity:1"
   id="stop227" />
        <stop
   offset="1"
   style="stop-color:#231f20;stop-opacity:1"
   id="stop228" />
    </linearGradient>
    <linearGradient
   id="_Linear19"
   x1="0"
   y1="0"
   x2="1"
   y2="0"
   gradientUnits="userSpaceOnUse"
   gradientTransform="matrix(-1.0435,-25.0434,25.0434,-1.0435,179.021,312.786)">
        <stop
   offset="0"
   style="stop-color:#fff;stop-opacity:1"
   id="stop229" />
        <stop
   offset="1"
   style="stop-color:#231f20;stop-opacity:1"
   id="stop230" />
    </linearGradient>
    <linearGradient
   id="_Linear20"
   x1="0"
   y1="0"
   x2="1"
   y2="0"
   gradientUnits="userSpaceOnUse"
   gradientTransform="matrix(-1.0435,-25.0435,25.0435,-1.0435,237.991,310.329)">
        <stop
   offset="0"
   style="stop-color:#fff;stop-opacity:1"
   id="stop231" />
        <stop
   offset="1"
   style="stop-color:#231f20;stop-opacity:1"
   id="stop232" />
    </linearGradient>
    <linearGradient
   id="_Linear21"
   x1="0"
   y1="0"
   x2="1"
   y2="0"
   gradientUnits="userSpaceOnUse"
   gradientTransform="matrix(-1.0435,-25.0435,25.0435,-1.0435,276.263,308.734)">
        <stop
   offset="0"
   style="stop-color:#fff;stop-opacity:1"
   id="stop233" />
        <stop
   offset="1"
   style="stop-color:#231f20;stop-opacity:1"
   id="stop234" />
    </linearGradient>
    <linearGradient
   id="_Linear22"
   x1="0"
   y1="0"
   x2="1"
   y2="0"
   gradientUnits="userSpaceOnUse"
   gradientTransform="matrix(-1.0435,-25.0435,25.0435,-1.0435,314.849,307.126)">
        <stop
   offset="0"
   style="stop-color:#fff;stop-opacity:1"
   id="stop235" />
        <stop
   offset="1"
   style="stop-color:#231f20;stop-opacity:1"
   id="stop236" />
    </linearGradient>
    <linearGradient
   id="_Linear23"
   x1="0"
   y1="0"
   x2="1"
   y2="0"
   gradientUnits="userSpaceOnUse"
   gradientTransform="matrix(-1.0434,-25.0435,25.0435,-1.0434,342.251,305.985)">
        <stop
   offset="0"
   style="stop-color:#fff;stop-opacity:1"
   id="stop237" />
        <stop
   offset="1"
   style="stop-color:#231f20;stop-opacity:1"
   id="stop238" />
    </linearGradient>
    <linearGradient
   id="_Linear24"
   x1="0"
   y1="0"
   x2="1"
   y2="0"
   gradientUnits="userSpaceOnUse"
   gradientTransform="matrix(-1.0435,-25.0435,25.0435,-1.0435,370.647,304.801)">
        <stop
   offset="0"
   style="stop-color:#fff;stop-opacity:1"
   id="stop239" />
        <stop
   offset="1"
   style="stop-color:#231f20;stop-opacity:1"
   id="stop240" />
    </linearGradient>
    <linearGradient
   id="_Linear25"
   x1="0"
   y1="0"
   x2="1"
   y2="0"
   gradientUnits="userSpaceOnUse"
   gradientTransform="matrix(-1.0435,-25.0435,25.0435,-1.0435,411.882,303.083)">
        <stop
   offset="0"
   style="stop-color:#fff;stop-opacity:1"
   id="stop241" />
        <stop
   offset="1"
   style="stop-color:#231f20;stop-opacity:1"
   id="stop242" />
    </linearGradient>
    <linearGradient
   id="_Linear26"
   x1="0"
   y1="0"
   x2="1"
   y2="0"
   gradientUnits="userSpaceOnUse"
   gradientTransform="matrix(-1.0435,-25.0435,25.0435,-1.0435,450.125,301.49)">
        <stop
   offset="0"
   style="stop-color:#fff;stop-opacity:1"
   id="stop243" />
        <stop
   offset="1"
   style="stop-color:#231f20;stop-opacity:1"
   id="stop244" />
    </linearGradient>
    <radialGradient
   id="_Radial27"
   cx="0"
   cy="0"
   r="1"
   gradientUnits="userSpaceOnUse"
   gradientTransform="matrix(228.001,0,0,228.001,270.82,474.697)">
        <stop
   offset="0"
   style="stop-color:#ea8d04;stop-opacity:1"
   id="stop245" />
        <stop
   offset="0.37"
   style="stop-color:#ff6400;stop-opacity:1"
   id="stop246" />
        <stop
   offset="1"
   style="stop-color:#ff0001;stop-opacity:1"
   id="stop247" />
    </radialGradient>
    <radialGradient
   id="_Radial28"
   cx="0"
   cy="0"
   r="1"
   gradientUnits="userSpaceOnUse"
   gradientTransform="matrix(228.001,0,0,228.001,270.82,474.697)">
        <stop
   offset="0"
   style="stop-color:#ea8d04;stop-opacity:1"
   id="stop248" />
        <stop
   offset="0.37"
   style="stop-color:#ff6400;stop-opacity:1"
   id="stop249" />
        <stop
   offset="1"
   style="stop-color:#ff0001;stop-opacity:1"
   id="stop250" />
    </radialGradient>
    <radialGradient
   id="_Radial29"
   cx="0"
   cy="0"
   r="1"
   gradientUnits="userSpaceOnUse"
   gradientTransform="matrix(228.001,0,0,228.001,270.82,474.697)">
        <stop
   offset="0"
   style="stop-color:#ea8d04;stop-opacity:1"
   id="stop251" />
        <stop
   offset="0.37"
   style="stop-color:#ff6400;stop-opacity:1"
   id="stop252" />
        <stop
   offset="1"
   style="stop-color:#ff0001;stop-opacity:1"
   id="stop253" />
    </radialGradient>
    <radialGradient
   id="_Radial30"
   cx="0"
   cy="0"
   r="1"
   gradientUnits="userSpaceOnUse"
   gradientTransform="matrix(228.001,0,0,228.001,270.82,474.697)">
        <stop
   offset="0"
   style="stop-color:#ea8d04;stop-opacity:1"
   id="stop254" />
        <stop
   offset="0.37"
   style="stop-color:#ff6400;stop-opacity:1"
   id="stop255" />
        <stop
   offset="1"
   style="stop-color:#ff0001;stop-opacity:1"
   id="stop256" />
    </radialGradient>
    <radialGradient
   id="_Radial31"
   cx="0"
   cy="0"
   r="1"
   gradientUnits="userSpaceOnUse"
   gradientTransform="matrix(228.001,0,0,228.001,270.82,474.697)">
        <stop
   offset="0"
   style="stop-color:#ea8d04;stop-opacity:1"
   id="stop257" />
        <stop
   offset="0.37"
   style="stop-color:#ff6400;stop-opacity:1"
   id="stop258" />
        <stop
   offset="1"
   style="stop-color:#ff0001;stop-opacity:1"
   id="stop259" />
    </radialGradient>
    <radialGradient
   id="_Radial32"
   cx="0"
   cy="0"
   r="1"
   gradientUnits="userSpaceOnUse"
   gradientTransform="matrix(228.001,0,0,228.001,270.82,474.697)">
        <stop
   offset="0"
   style="stop-color:#ea8d04;stop-opacity:1"
   id="stop260" />
        <stop
   offset="0.37"
   style="stop-color:#ff6400;stop-opacity:1"
   id="stop261" />
        <stop
   offset="1"
   style="stop-color:#ff0001;stop-opacity:1"
   id="stop262" />
    </radialGradient>
    <radialGradient
   id="_Radial33"
   cx="0"
   cy="0"
   r="1"
   gradientUnits="userSpaceOnUse"
   gradientTransform="matrix(228.001,0,0,228.001,270.82,474.697)">
        <stop
   offset="0"
   style="stop-color:#ea8d04;stop-opacity:1"
   id="stop263" />
        <stop
   offset="0.37"
   style="stop-color:#ff6400;stop-opacity:1"
   id="stop264" />
        <stop
   offset="1"
   style="stop-color:#ff0001;stop-opacity:1"
   id="stop265" />
    </radialGradient>
    <radialGradient
   id="_Radial34"
   cx="0"
   cy="0"
   r="1"
   gradientUnits="userSpaceOnUse"
   gradientTransform="matrix(228.001,0,0,228.001,270.82,474.697)">
        <stop
   offset="0"
   style="stop-color:#ea8d04;stop-opacity:1"
   id="stop266" />
        <stop
   offset="0.37"
   style="stop-color:#ff6400;stop-opacity:1"
   id="stop267" />
        <stop
   offset="1"
   style="stop-color:#ff0001;stop-opacity:1"
   id="stop268" />
    </radialGradient>
    <radialGradient
   id="_Radial35"
   cx="0"
   cy="0"
   r="1"
   gradientUnits="userSpaceOnUse"
   gradientTransform="matrix(228.001,0,0,228.001,270.82,474.697)">
        <stop
   offset="0"
   style="stop-color:#ea8d04;stop-opacity:1"
   id="stop269" />
        <stop
   offset="0.37"
   style="stop-color:#ff6400;stop-opacity:1"
   id="stop270" />
        <stop
   offset="1"
   style="stop-color:#ff0001;stop-opacity:1"
   id="stop271" />
    </radialGradient>
    <radialGradient
   id="_Radial36"
   cx="0"
   cy="0"
   r="1"
   gradientUnits="userSpaceOnUse"
   gradientTransform="matrix(228.001,0,0,228.001,270.82,474.697)">
        <stop
   offset="0"
   style="stop-color:#ea8d04;stop-opacity:1"
   id="stop272" />
        <stop
   offset="0.37"
   style="stop-color:#ff6400;stop-opacity:1"
   id="stop273" />
        <stop
   offset="1"
   style="stop-color:#ff0001;stop-opacity:1"
   id="stop274" />
    </radialGradient>
    <radialGradient
   id="_Radial37"
   cx="0"
   cy="0"
   r="1"
   gradientUnits="userSpaceOnUse"
   gradientTransform="matrix(228.001,0,0,228.001,270.82,474.697)">
        <stop
   offset="0"
   style="stop-color:#ea8d04;stop-opacity:1"
   id="stop275" />
        <stop
   offset="0.37"
   style="stop-color:#ff6400;stop-opacity:1"
   id="stop276" />
        <stop
   offset="1"
   style="stop-color:#ff0001;stop-opacity:1"
   id="stop277" />
    </radialGradient>
    <radialGradient
   id="_Radial38"
   cx="0"
   cy="0"
   r="1"
   gradientUnits="userSpaceOnUse"
   gradientTransform="matrix(228.001,0,0,228.001,270.82,474.697)">
        <stop
   offset="0"
   style="stop-color:#ea8d04;stop-opacity:1"
   id="stop278" />
        <stop
   offset="0.37"
   style="stop-color:#ff6400;stop-opacity:1"
   id="stop279" />
        <stop
   offset="1"
   style="stop-color:#ff0001;stop-opacity:1"
   id="stop280" />
    </radialGradient>
    <radialGradient
   id="_Radial39"
   cx="0"
   cy="0"
   r="1"
   gradientUnits="userSpaceOnUse"
   gradientTransform="matrix(228.001,0,0,228.001,270.82,474.697)">
        <stop
   offset="0"
   style="stop-color:#ea8d04;stop-opacity:1"
   id="stop281" />
        <stop
   offset="0.37"
   style="stop-color:#ff6400;stop-opacity:1"
   id="stop282" />
        <stop
   offset="1"
   style="stop-color:#ff0001;stop-opacity:1"
   id="stop283" />
    </radialGradient>
    <radialGradient
   id="_Radial40"
   cx="0"
   cy="0"
   r="1"
   gradientUnits="userSpaceOnUse"
   gradientTransform="matrix(228.001,0,0,228.001,270.82,474.697)">
        <stop
   offset="0"
   style="stop-color:#ea8d04;stop-opacity:1"
   id="stop284" />
        <stop
   offset="0.37"
   style="stop-color:#ff6400;stop-opacity:1"
   id="stop285" />
        <stop
   offset="1"
   style="stop-color:#ff0001;stop-opacity:1"
   id="stop286" />
    </radialGradient>
    <linearGradient
   id="_Linear41"
   x1="0"
   y1="0"
   x2="1"
   y2="0"
   gradientUnits="userSpaceOnUse"
   gradientTransform="matrix(-1.0435,-25.0435,25.0435,-1.0435,151.636,313.927)">
        <stop
   offset="0"
   style="stop-color:#fff;stop-opacity:0.5"
   id="stop287" />
        <stop
   offset="1"
   style="stop-color:#231f20;stop-opacity:0.5"
   id="stop288" />
    </linearGradient>
    <linearGradient
   id="_Linear42"
   x1="0"
   y1="0"
   x2="1"
   y2="0"
   gradientUnits="userSpaceOnUse"
   gradientTransform="matrix(-1.0435,-25.0434,25.0434,-1.0435,378.289,304.483)">
        <stop
   offset="0"
   style="stop-color:#fff;stop-opacity:0.5"
   id="stop289" />
        <stop
   offset="1"
   style="stop-color:#231f20;stop-opacity:0.5"
   id="stop290" />
    </linearGradient>
    </defs>
</svg>
